<mxfile host="app.diagrams.net" agent="Mozilla/5.0 (Macintosh; Intel Mac OS X 10_15_7) AppleWebKit/605.1.15 (KHTML, like Gecko) Version/17.6 Safari/605.1.15" version="26.0.13">
  <diagram name="第 1 页" id="kj4Um8WInydh9NmDzHJs">
    <mxGraphModel dx="530" dy="359" grid="1" gridSize="10" guides="1" tooltips="1" connect="1" arrows="1" fold="1" page="1" pageScale="1" pageWidth="827" pageHeight="1169" math="0" shadow="0">
      <root>
        <mxCell id="0" />
        <mxCell id="1" parent="0" />
        <mxCell id="PxYYPepECbO49ryiqM4Z-678" value="" style="rounded=1;whiteSpace=wrap;html=1;strokeWidth=1;fillColor=none;strokeColor=#d79b00;dashed=1;" vertex="1" parent="1">
          <mxGeometry x="237.76" y="654" width="77" height="179" as="geometry" />
        </mxCell>
        <mxCell id="PxYYPepECbO49ryiqM4Z-679" value="" style="endArrow=classic;html=1;rounded=0;exitX=1;exitY=0;exitDx=0;exitDy=0;endSize=3;fillColor=#ffe6cc;strokeColor=#d79b00;dashed=1;" edge="1" parent="1" source="PxYYPepECbO49ryiqM4Z-678">
          <mxGeometry width="50" height="50" relative="1" as="geometry">
            <mxPoint x="309.2979999999999" y="834.6299999999999" as="sourcePoint" />
            <mxPoint x="650" y="770" as="targetPoint" />
            <Array as="points">
              <mxPoint x="650" y="654" />
            </Array>
          </mxGeometry>
        </mxCell>
        <mxCell id="PxYYPepECbO49ryiqM4Z-676" value="" style="endArrow=classic;html=1;rounded=0;endSize=3;" edge="1" parent="1">
          <mxGeometry width="50" height="50" relative="1" as="geometry">
            <mxPoint x="319" y="698" as="sourcePoint" />
            <mxPoint x="362" y="698" as="targetPoint" />
          </mxGeometry>
        </mxCell>
        <mxCell id="PxYYPepECbO49ryiqM4Z-675" value="" style="endArrow=classic;html=1;rounded=0;endSize=3;" edge="1" parent="1">
          <mxGeometry width="50" height="50" relative="1" as="geometry">
            <mxPoint x="317" y="797" as="sourcePoint" />
            <mxPoint x="360" y="797" as="targetPoint" />
          </mxGeometry>
        </mxCell>
        <mxCell id="PxYYPepECbO49ryiqM4Z-160" value="&lt;span style=&quot;white-space: pre-wrap; caret-color: rgba(0, 0, 0, 0.87); color: rgba(0, 0, 0, 0.87); font-family: &amp;quot;Helvetica Neue&amp;quot;, &amp;quot;Segoe UI&amp;quot;, Helvetica, Arial, sans-serif;&quot;&gt;&lt;font style=&quot;font-size: 8px;&quot;&gt;Lables&lt;/font&gt;&lt;/span&gt;" style="rounded=1;whiteSpace=wrap;html=1;strokeColor=none;fillColor=none;align=left;" vertex="1" parent="1">
          <mxGeometry x="594" y="681.01" width="31" height="18.99" as="geometry" />
        </mxCell>
        <mxCell id="PxYYPepECbO49ryiqM4Z-314" value="" style="whiteSpace=wrap;html=1;aspect=fixed;container=0;fillColor=#dae8fc;strokeColor=#6c8ebf;" vertex="1" parent="1">
          <mxGeometry x="404" y="765" width="10" height="10" as="geometry" />
        </mxCell>
        <mxCell id="PxYYPepECbO49ryiqM4Z-315" value="" style="whiteSpace=wrap;html=1;aspect=fixed;container=0;fillColor=#dae8fc;strokeColor=#6c8ebf;" vertex="1" parent="1">
          <mxGeometry x="417" y="765" width="10" height="10" as="geometry" />
        </mxCell>
        <mxCell id="PxYYPepECbO49ryiqM4Z-316" value="" style="whiteSpace=wrap;html=1;aspect=fixed;container=0;fillColor=#dae8fc;strokeColor=#6c8ebf;" vertex="1" parent="1">
          <mxGeometry x="430" y="765" width="10" height="10" as="geometry" />
        </mxCell>
        <mxCell id="PxYYPepECbO49ryiqM4Z-317" value="" style="whiteSpace=wrap;html=1;aspect=fixed;container=0;fillColor=#dae8fc;strokeColor=#6c8ebf;" vertex="1" parent="1">
          <mxGeometry x="443" y="765" width="10" height="10" as="geometry" />
        </mxCell>
        <mxCell id="PxYYPepECbO49ryiqM4Z-318" value="" style="whiteSpace=wrap;html=1;aspect=fixed;container=0;fillColor=#dae8fc;strokeColor=#6c8ebf;" vertex="1" parent="1">
          <mxGeometry x="456" y="765" width="10" height="10" as="geometry" />
        </mxCell>
        <mxCell id="PxYYPepECbO49ryiqM4Z-320" value="" style="whiteSpace=wrap;html=1;aspect=fixed;container=0;fillColor=#dae8fc;strokeColor=#6c8ebf;" vertex="1" parent="1">
          <mxGeometry x="404" y="778" width="10" height="10" as="geometry" />
        </mxCell>
        <mxCell id="PxYYPepECbO49ryiqM4Z-321" value="" style="whiteSpace=wrap;html=1;aspect=fixed;container=0;fillColor=#dae8fc;strokeColor=#6c8ebf;" vertex="1" parent="1">
          <mxGeometry x="417" y="778" width="10" height="10" as="geometry" />
        </mxCell>
        <mxCell id="PxYYPepECbO49ryiqM4Z-322" value="" style="whiteSpace=wrap;html=1;aspect=fixed;container=0;fillColor=#dae8fc;strokeColor=#6c8ebf;" vertex="1" parent="1">
          <mxGeometry x="430" y="778" width="10" height="10" as="geometry" />
        </mxCell>
        <mxCell id="PxYYPepECbO49ryiqM4Z-323" value="" style="whiteSpace=wrap;html=1;aspect=fixed;container=0;fillColor=#dae8fc;strokeColor=#6c8ebf;" vertex="1" parent="1">
          <mxGeometry x="443" y="778" width="10" height="10" as="geometry" />
        </mxCell>
        <mxCell id="PxYYPepECbO49ryiqM4Z-324" value="" style="whiteSpace=wrap;html=1;aspect=fixed;container=0;fillColor=#dae8fc;strokeColor=#6c8ebf;" vertex="1" parent="1">
          <mxGeometry x="456" y="778" width="10" height="10" as="geometry" />
        </mxCell>
        <mxCell id="PxYYPepECbO49ryiqM4Z-326" value="" style="whiteSpace=wrap;html=1;aspect=fixed;container=0;fillColor=#dae8fc;strokeColor=#6c8ebf;" vertex="1" parent="1">
          <mxGeometry x="404" y="791" width="10" height="10" as="geometry" />
        </mxCell>
        <mxCell id="PxYYPepECbO49ryiqM4Z-327" value="" style="whiteSpace=wrap;html=1;aspect=fixed;container=0;fillColor=#dae8fc;strokeColor=#6c8ebf;" vertex="1" parent="1">
          <mxGeometry x="417" y="791" width="10" height="10" as="geometry" />
        </mxCell>
        <mxCell id="PxYYPepECbO49ryiqM4Z-328" value="" style="whiteSpace=wrap;html=1;aspect=fixed;container=0;fillColor=#dae8fc;strokeColor=#6c8ebf;" vertex="1" parent="1">
          <mxGeometry x="430" y="791" width="10" height="10" as="geometry" />
        </mxCell>
        <mxCell id="PxYYPepECbO49ryiqM4Z-329" value="" style="whiteSpace=wrap;html=1;aspect=fixed;container=0;fillColor=#dae8fc;strokeColor=#6c8ebf;" vertex="1" parent="1">
          <mxGeometry x="443" y="791" width="10" height="10" as="geometry" />
        </mxCell>
        <mxCell id="PxYYPepECbO49ryiqM4Z-330" value="" style="whiteSpace=wrap;html=1;aspect=fixed;container=0;fillColor=#dae8fc;strokeColor=#6c8ebf;" vertex="1" parent="1">
          <mxGeometry x="456" y="791" width="10" height="10" as="geometry" />
        </mxCell>
        <mxCell id="PxYYPepECbO49ryiqM4Z-332" value="" style="whiteSpace=wrap;html=1;aspect=fixed;container=0;fillColor=#dae8fc;strokeColor=#6c8ebf;" vertex="1" parent="1">
          <mxGeometry x="404" y="804" width="10" height="10" as="geometry" />
        </mxCell>
        <mxCell id="PxYYPepECbO49ryiqM4Z-333" value="" style="whiteSpace=wrap;html=1;aspect=fixed;container=0;fillColor=#dae8fc;strokeColor=#6c8ebf;" vertex="1" parent="1">
          <mxGeometry x="417" y="804" width="10" height="10" as="geometry" />
        </mxCell>
        <mxCell id="PxYYPepECbO49ryiqM4Z-334" value="" style="whiteSpace=wrap;html=1;aspect=fixed;container=0;fillColor=#dae8fc;strokeColor=#6c8ebf;" vertex="1" parent="1">
          <mxGeometry x="430" y="804" width="10" height="10" as="geometry" />
        </mxCell>
        <mxCell id="PxYYPepECbO49ryiqM4Z-335" value="" style="whiteSpace=wrap;html=1;aspect=fixed;container=0;fillColor=#dae8fc;strokeColor=#6c8ebf;" vertex="1" parent="1">
          <mxGeometry x="443" y="804" width="10" height="10" as="geometry" />
        </mxCell>
        <mxCell id="PxYYPepECbO49ryiqM4Z-336" value="" style="whiteSpace=wrap;html=1;aspect=fixed;container=0;fillColor=#dae8fc;strokeColor=#6c8ebf;" vertex="1" parent="1">
          <mxGeometry x="456" y="804" width="10" height="10" as="geometry" />
        </mxCell>
        <mxCell id="PxYYPepECbO49ryiqM4Z-338" value="" style="whiteSpace=wrap;html=1;aspect=fixed;container=0;fillColor=#dae8fc;strokeColor=#6c8ebf;" vertex="1" parent="1">
          <mxGeometry x="404" y="817" width="10" height="10" as="geometry" />
        </mxCell>
        <mxCell id="PxYYPepECbO49ryiqM4Z-339" value="" style="whiteSpace=wrap;html=1;aspect=fixed;container=0;fillColor=#dae8fc;strokeColor=#6c8ebf;" vertex="1" parent="1">
          <mxGeometry x="417" y="817" width="10" height="10" as="geometry" />
        </mxCell>
        <mxCell id="PxYYPepECbO49ryiqM4Z-340" value="" style="whiteSpace=wrap;html=1;aspect=fixed;container=0;fillColor=#dae8fc;strokeColor=#6c8ebf;" vertex="1" parent="1">
          <mxGeometry x="430" y="817" width="10" height="10" as="geometry" />
        </mxCell>
        <mxCell id="PxYYPepECbO49ryiqM4Z-341" value="" style="whiteSpace=wrap;html=1;aspect=fixed;container=0;fillColor=#dae8fc;strokeColor=#6c8ebf;" vertex="1" parent="1">
          <mxGeometry x="443" y="817" width="10" height="10" as="geometry" />
        </mxCell>
        <mxCell id="PxYYPepECbO49ryiqM4Z-342" value="" style="whiteSpace=wrap;html=1;aspect=fixed;container=0;fillColor=#dae8fc;strokeColor=#6c8ebf;" vertex="1" parent="1">
          <mxGeometry x="456" y="817" width="10" height="10" as="geometry" />
        </mxCell>
        <mxCell id="PxYYPepECbO49ryiqM4Z-200" value="" style="whiteSpace=wrap;html=1;aspect=fixed;container=0;fillColor=#f8cecc;strokeColor=#b85450;" vertex="1" parent="1">
          <mxGeometry x="404" y="675" width="10" height="10" as="geometry" />
        </mxCell>
        <mxCell id="PxYYPepECbO49ryiqM4Z-201" value="" style="whiteSpace=wrap;html=1;aspect=fixed;container=0;fillColor=#f8cecc;strokeColor=#b85450;" vertex="1" parent="1">
          <mxGeometry x="417" y="675" width="10" height="10" as="geometry" />
        </mxCell>
        <mxCell id="PxYYPepECbO49ryiqM4Z-202" value="" style="whiteSpace=wrap;html=1;aspect=fixed;container=0;fillColor=#f8cecc;strokeColor=#b85450;" vertex="1" parent="1">
          <mxGeometry x="430" y="675" width="10" height="10" as="geometry" />
        </mxCell>
        <mxCell id="PxYYPepECbO49ryiqM4Z-203" value="" style="whiteSpace=wrap;html=1;aspect=fixed;container=0;fillColor=#f8cecc;strokeColor=#b85450;" vertex="1" parent="1">
          <mxGeometry x="443" y="675" width="10" height="10" as="geometry" />
        </mxCell>
        <mxCell id="PxYYPepECbO49ryiqM4Z-204" value="" style="whiteSpace=wrap;html=1;aspect=fixed;container=0;fillColor=#f8cecc;strokeColor=#b85450;" vertex="1" parent="1">
          <mxGeometry x="456" y="675" width="10" height="10" as="geometry" />
        </mxCell>
        <mxCell id="PxYYPepECbO49ryiqM4Z-250" value="" style="whiteSpace=wrap;html=1;aspect=fixed;container=0;fillColor=#f8cecc;strokeColor=#b85450;" vertex="1" parent="1">
          <mxGeometry x="404" y="688" width="10" height="10" as="geometry" />
        </mxCell>
        <mxCell id="PxYYPepECbO49ryiqM4Z-251" value="" style="whiteSpace=wrap;html=1;aspect=fixed;container=0;fillColor=#f8cecc;strokeColor=#b85450;" vertex="1" parent="1">
          <mxGeometry x="417" y="688" width="10" height="10" as="geometry" />
        </mxCell>
        <mxCell id="PxYYPepECbO49ryiqM4Z-252" value="" style="whiteSpace=wrap;html=1;aspect=fixed;container=0;fillColor=#f8cecc;strokeColor=#b85450;" vertex="1" parent="1">
          <mxGeometry x="430" y="688" width="10" height="10" as="geometry" />
        </mxCell>
        <mxCell id="PxYYPepECbO49ryiqM4Z-253" value="" style="whiteSpace=wrap;html=1;aspect=fixed;container=0;fillColor=#f8cecc;strokeColor=#b85450;" vertex="1" parent="1">
          <mxGeometry x="443" y="688" width="10" height="10" as="geometry" />
        </mxCell>
        <mxCell id="PxYYPepECbO49ryiqM4Z-254" value="" style="whiteSpace=wrap;html=1;aspect=fixed;container=0;fillColor=#f8cecc;strokeColor=#b85450;" vertex="1" parent="1">
          <mxGeometry x="456" y="688" width="10" height="10" as="geometry" />
        </mxCell>
        <mxCell id="PxYYPepECbO49ryiqM4Z-256" value="" style="whiteSpace=wrap;html=1;aspect=fixed;container=0;fillColor=#f8cecc;strokeColor=#b85450;" vertex="1" parent="1">
          <mxGeometry x="404" y="701" width="10" height="10" as="geometry" />
        </mxCell>
        <mxCell id="PxYYPepECbO49ryiqM4Z-257" value="" style="whiteSpace=wrap;html=1;aspect=fixed;container=0;fillColor=#f8cecc;strokeColor=#b85450;" vertex="1" parent="1">
          <mxGeometry x="417" y="701" width="10" height="10" as="geometry" />
        </mxCell>
        <mxCell id="PxYYPepECbO49ryiqM4Z-258" value="" style="whiteSpace=wrap;html=1;aspect=fixed;container=0;fillColor=#f8cecc;strokeColor=#b85450;" vertex="1" parent="1">
          <mxGeometry x="430" y="701" width="10" height="10" as="geometry" />
        </mxCell>
        <mxCell id="PxYYPepECbO49ryiqM4Z-259" value="" style="whiteSpace=wrap;html=1;aspect=fixed;container=0;fillColor=#f8cecc;strokeColor=#b85450;" vertex="1" parent="1">
          <mxGeometry x="443" y="701" width="10" height="10" as="geometry" />
        </mxCell>
        <mxCell id="PxYYPepECbO49ryiqM4Z-260" value="" style="whiteSpace=wrap;html=1;aspect=fixed;container=0;fillColor=#f8cecc;strokeColor=#b85450;" vertex="1" parent="1">
          <mxGeometry x="456" y="701" width="10" height="10" as="geometry" />
        </mxCell>
        <mxCell id="PxYYPepECbO49ryiqM4Z-262" value="" style="whiteSpace=wrap;html=1;aspect=fixed;container=0;fillColor=#f8cecc;strokeColor=#b85450;" vertex="1" parent="1">
          <mxGeometry x="404" y="714" width="10" height="10" as="geometry" />
        </mxCell>
        <mxCell id="PxYYPepECbO49ryiqM4Z-263" value="" style="whiteSpace=wrap;html=1;aspect=fixed;container=0;fillColor=#f8cecc;strokeColor=#b85450;" vertex="1" parent="1">
          <mxGeometry x="417" y="714" width="10" height="10" as="geometry" />
        </mxCell>
        <mxCell id="PxYYPepECbO49ryiqM4Z-264" value="" style="whiteSpace=wrap;html=1;aspect=fixed;container=0;fillColor=#f8cecc;strokeColor=#b85450;" vertex="1" parent="1">
          <mxGeometry x="430" y="714" width="10" height="10" as="geometry" />
        </mxCell>
        <mxCell id="PxYYPepECbO49ryiqM4Z-265" value="" style="whiteSpace=wrap;html=1;aspect=fixed;container=0;fillColor=#f8cecc;strokeColor=#b85450;" vertex="1" parent="1">
          <mxGeometry x="443" y="714" width="10" height="10" as="geometry" />
        </mxCell>
        <mxCell id="PxYYPepECbO49ryiqM4Z-266" value="" style="whiteSpace=wrap;html=1;aspect=fixed;container=0;fillColor=#f8cecc;strokeColor=#b85450;" vertex="1" parent="1">
          <mxGeometry x="456" y="714" width="10" height="10" as="geometry" />
        </mxCell>
        <mxCell id="PxYYPepECbO49ryiqM4Z-268" value="" style="whiteSpace=wrap;html=1;aspect=fixed;container=0;fillColor=#f8cecc;strokeColor=#b85450;" vertex="1" parent="1">
          <mxGeometry x="404" y="727" width="10" height="10" as="geometry" />
        </mxCell>
        <mxCell id="PxYYPepECbO49ryiqM4Z-269" value="" style="whiteSpace=wrap;html=1;aspect=fixed;container=0;fillColor=#f8cecc;strokeColor=#b85450;" vertex="1" parent="1">
          <mxGeometry x="417" y="727" width="10" height="10" as="geometry" />
        </mxCell>
        <mxCell id="PxYYPepECbO49ryiqM4Z-270" value="" style="whiteSpace=wrap;html=1;aspect=fixed;container=0;fillColor=#f8cecc;strokeColor=#b85450;" vertex="1" parent="1">
          <mxGeometry x="430" y="727" width="10" height="10" as="geometry" />
        </mxCell>
        <mxCell id="PxYYPepECbO49ryiqM4Z-271" value="" style="whiteSpace=wrap;html=1;aspect=fixed;container=0;fillColor=#f8cecc;strokeColor=#b85450;" vertex="1" parent="1">
          <mxGeometry x="443" y="727" width="10" height="10" as="geometry" />
        </mxCell>
        <mxCell id="PxYYPepECbO49ryiqM4Z-272" value="" style="whiteSpace=wrap;html=1;aspect=fixed;container=0;fillColor=#f8cecc;strokeColor=#b85450;" vertex="1" parent="1">
          <mxGeometry x="456" y="727" width="10" height="10" as="geometry" />
        </mxCell>
        <mxCell id="PxYYPepECbO49ryiqM4Z-343" value="" style="whiteSpace=wrap;html=1;aspect=fixed;container=0;fillColor=#f8cecc;strokeColor=#b85450;" vertex="1" parent="1">
          <mxGeometry x="496" y="678" width="10" height="10" as="geometry" />
        </mxCell>
        <mxCell id="PxYYPepECbO49ryiqM4Z-344" value="" style="whiteSpace=wrap;html=1;aspect=fixed;container=0;fillColor=#f8cecc;strokeColor=#b85450;" vertex="1" parent="1">
          <mxGeometry x="496" y="691" width="10" height="10" as="geometry" />
        </mxCell>
        <mxCell id="PxYYPepECbO49ryiqM4Z-345" value="" style="whiteSpace=wrap;html=1;aspect=fixed;container=0;fillColor=#f8cecc;strokeColor=#b85450;" vertex="1" parent="1">
          <mxGeometry x="496" y="704" width="10" height="10" as="geometry" />
        </mxCell>
        <mxCell id="PxYYPepECbO49ryiqM4Z-346" value="" style="whiteSpace=wrap;html=1;aspect=fixed;container=0;fillColor=#f8cecc;strokeColor=#b85450;" vertex="1" parent="1">
          <mxGeometry x="496" y="717" width="10" height="10" as="geometry" />
        </mxCell>
        <mxCell id="PxYYPepECbO49ryiqM4Z-347" value="" style="whiteSpace=wrap;html=1;aspect=fixed;container=0;fillColor=#f8cecc;strokeColor=#b85450;" vertex="1" parent="1">
          <mxGeometry x="496" y="730" width="10" height="10" as="geometry" />
        </mxCell>
        <mxCell id="PxYYPepECbO49ryiqM4Z-348" value="" style="whiteSpace=wrap;html=1;aspect=fixed;container=0;fillColor=#dae8fc;strokeColor=#6c8ebf;" vertex="1" parent="1">
          <mxGeometry x="496" y="757" width="10" height="10" as="geometry" />
        </mxCell>
        <mxCell id="PxYYPepECbO49ryiqM4Z-349" value="" style="whiteSpace=wrap;html=1;aspect=fixed;container=0;fillColor=#dae8fc;strokeColor=#6c8ebf;" vertex="1" parent="1">
          <mxGeometry x="496" y="770" width="10" height="10" as="geometry" />
        </mxCell>
        <mxCell id="PxYYPepECbO49ryiqM4Z-350" value="" style="whiteSpace=wrap;html=1;aspect=fixed;container=0;fillColor=#dae8fc;strokeColor=#6c8ebf;" vertex="1" parent="1">
          <mxGeometry x="496" y="783" width="10" height="10" as="geometry" />
        </mxCell>
        <mxCell id="PxYYPepECbO49ryiqM4Z-351" value="" style="whiteSpace=wrap;html=1;aspect=fixed;container=0;fillColor=#dae8fc;strokeColor=#6c8ebf;" vertex="1" parent="1">
          <mxGeometry x="496" y="796" width="10" height="10" as="geometry" />
        </mxCell>
        <mxCell id="PxYYPepECbO49ryiqM4Z-352" value="" style="whiteSpace=wrap;html=1;aspect=fixed;container=0;fillColor=#dae8fc;strokeColor=#6c8ebf;" vertex="1" parent="1">
          <mxGeometry x="496" y="809" width="10" height="10" as="geometry" />
        </mxCell>
        <mxCell id="PxYYPepECbO49ryiqM4Z-356" value="" style="whiteSpace=wrap;html=1;aspect=fixed;container=0;fillColor=#f8cecc;strokeColor=#b85450;" vertex="1" parent="1">
          <mxGeometry x="525" y="726" width="10" height="10" as="geometry" />
        </mxCell>
        <mxCell id="PxYYPepECbO49ryiqM4Z-357" value="" style="whiteSpace=wrap;html=1;aspect=fixed;container=0;fillColor=#f8cecc;strokeColor=#b85450;" vertex="1" parent="1">
          <mxGeometry x="525" y="739" width="10" height="10" as="geometry" />
        </mxCell>
        <mxCell id="PxYYPepECbO49ryiqM4Z-358" value="" style="whiteSpace=wrap;html=1;aspect=fixed;container=0;fillColor=#dae8fc;strokeColor=#6c8ebf;" vertex="1" parent="1">
          <mxGeometry x="525" y="752" width="10" height="10" as="geometry" />
        </mxCell>
        <mxCell id="PxYYPepECbO49ryiqM4Z-359" value="" style="whiteSpace=wrap;html=1;aspect=fixed;container=0;fillColor=#dae8fc;strokeColor=#6c8ebf;" vertex="1" parent="1">
          <mxGeometry x="525" y="765" width="10" height="10" as="geometry" />
        </mxCell>
        <mxCell id="PxYYPepECbO49ryiqM4Z-363" value="" style="whiteSpace=wrap;html=1;aspect=fixed;container=0;fillColor=#f5f5f5;strokeColor=#666666;fontColor=#333333;" vertex="1" parent="1">
          <mxGeometry x="560" y="740" width="10" height="10" as="geometry" />
        </mxCell>
        <mxCell id="PxYYPepECbO49ryiqM4Z-364" value="" style="whiteSpace=wrap;html=1;aspect=fixed;container=0;fillColor=#f5f5f5;strokeColor=#666666;fontColor=#333333;" vertex="1" parent="1">
          <mxGeometry x="573" y="740" width="10" height="10" as="geometry" />
        </mxCell>
        <mxCell id="PxYYPepECbO49ryiqM4Z-365" value="" style="whiteSpace=wrap;html=1;aspect=fixed;container=0;fillColor=#f5f5f5;strokeColor=#666666;fontColor=#333333;" vertex="1" parent="1">
          <mxGeometry x="586" y="740" width="10" height="10" as="geometry" />
        </mxCell>
        <mxCell id="PxYYPepECbO49ryiqM4Z-366" value="" style="whiteSpace=wrap;html=1;aspect=fixed;container=0;fillColor=#f5f5f5;strokeColor=#666666;fontColor=#333333;" vertex="1" parent="1">
          <mxGeometry x="599" y="740" width="10" height="10" as="geometry" />
        </mxCell>
        <mxCell id="PxYYPepECbO49ryiqM4Z-367" value="" style="whiteSpace=wrap;html=1;aspect=fixed;container=0;fillColor=#f5f5f5;strokeColor=#666666;fontColor=#333333;" vertex="1" parent="1">
          <mxGeometry x="612" y="740" width="10" height="10" as="geometry" />
        </mxCell>
        <mxCell id="PxYYPepECbO49ryiqM4Z-368" value="" style="whiteSpace=wrap;html=1;aspect=fixed;container=0;fillColor=#f5f5f5;strokeColor=#666666;fontColor=#333333;" vertex="1" parent="1">
          <mxGeometry x="560" y="753" width="10" height="10" as="geometry" />
        </mxCell>
        <mxCell id="PxYYPepECbO49ryiqM4Z-369" value="" style="whiteSpace=wrap;html=1;aspect=fixed;container=0;fillColor=#f5f5f5;strokeColor=#666666;fontColor=#333333;" vertex="1" parent="1">
          <mxGeometry x="573" y="753" width="10" height="10" as="geometry" />
        </mxCell>
        <mxCell id="PxYYPepECbO49ryiqM4Z-370" value="" style="whiteSpace=wrap;html=1;aspect=fixed;container=0;fillColor=#f5f5f5;strokeColor=#666666;fontColor=#333333;" vertex="1" parent="1">
          <mxGeometry x="586" y="753" width="10" height="10" as="geometry" />
        </mxCell>
        <mxCell id="PxYYPepECbO49ryiqM4Z-371" value="" style="whiteSpace=wrap;html=1;aspect=fixed;container=0;fillColor=#bac8d3;strokeColor=#23445d;" vertex="1" parent="1">
          <mxGeometry x="599" y="753" width="10" height="10" as="geometry" />
        </mxCell>
        <mxCell id="PxYYPepECbO49ryiqM4Z-372" value="" style="whiteSpace=wrap;html=1;aspect=fixed;container=0;fillColor=#f5f5f5;strokeColor=#666666;fontColor=#333333;" vertex="1" parent="1">
          <mxGeometry x="612" y="753" width="10" height="10" as="geometry" />
        </mxCell>
        <mxCell id="PxYYPepECbO49ryiqM4Z-373" value="" style="whiteSpace=wrap;html=1;aspect=fixed;container=0;fillColor=#f5f5f5;strokeColor=#666666;fontColor=#333333;" vertex="1" parent="1">
          <mxGeometry x="560" y="766" width="10" height="10" as="geometry" />
        </mxCell>
        <mxCell id="PxYYPepECbO49ryiqM4Z-374" value="" style="whiteSpace=wrap;html=1;aspect=fixed;container=0;fillColor=#f5f5f5;strokeColor=#666666;fontColor=#333333;" vertex="1" parent="1">
          <mxGeometry x="573" y="766" width="10" height="10" as="geometry" />
        </mxCell>
        <mxCell id="PxYYPepECbO49ryiqM4Z-375" value="" style="whiteSpace=wrap;html=1;aspect=fixed;container=0;fillColor=#f5f5f5;strokeColor=#666666;fontColor=#333333;" vertex="1" parent="1">
          <mxGeometry x="586" y="766" width="10" height="10" as="geometry" />
        </mxCell>
        <mxCell id="PxYYPepECbO49ryiqM4Z-376" value="" style="whiteSpace=wrap;html=1;aspect=fixed;container=0;fillColor=#f5f5f5;strokeColor=#666666;fontColor=#333333;" vertex="1" parent="1">
          <mxGeometry x="599" y="766" width="10" height="10" as="geometry" />
        </mxCell>
        <mxCell id="PxYYPepECbO49ryiqM4Z-377" value="" style="whiteSpace=wrap;html=1;aspect=fixed;container=0;fillColor=#f5f5f5;strokeColor=#666666;fontColor=#333333;" vertex="1" parent="1">
          <mxGeometry x="612" y="766" width="10" height="10" as="geometry" />
        </mxCell>
        <mxCell id="PxYYPepECbO49ryiqM4Z-378" value="" style="whiteSpace=wrap;html=1;aspect=fixed;container=0;fillColor=#f5f5f5;strokeColor=#666666;fontColor=#333333;" vertex="1" parent="1">
          <mxGeometry x="560" y="779" width="10" height="10" as="geometry" />
        </mxCell>
        <mxCell id="PxYYPepECbO49ryiqM4Z-379" value="" style="whiteSpace=wrap;html=1;aspect=fixed;container=0;fillColor=#f5f5f5;strokeColor=#666666;fontColor=#333333;" vertex="1" parent="1">
          <mxGeometry x="573" y="779" width="10" height="10" as="geometry" />
        </mxCell>
        <mxCell id="PxYYPepECbO49ryiqM4Z-380" value="" style="whiteSpace=wrap;html=1;aspect=fixed;container=0;fillColor=#f5f5f5;strokeColor=#666666;fontColor=#333333;" vertex="1" parent="1">
          <mxGeometry x="586" y="779" width="10" height="10" as="geometry" />
        </mxCell>
        <mxCell id="PxYYPepECbO49ryiqM4Z-381" value="" style="whiteSpace=wrap;html=1;aspect=fixed;container=0;fillColor=#f5f5f5;strokeColor=#666666;fontColor=#333333;" vertex="1" parent="1">
          <mxGeometry x="599" y="779" width="10" height="10" as="geometry" />
        </mxCell>
        <mxCell id="PxYYPepECbO49ryiqM4Z-382" value="" style="whiteSpace=wrap;html=1;aspect=fixed;container=0;fillColor=#f5f5f5;strokeColor=#666666;fontColor=#333333;" vertex="1" parent="1">
          <mxGeometry x="612" y="779" width="10" height="10" as="geometry" />
        </mxCell>
        <mxCell id="PxYYPepECbO49ryiqM4Z-383" value="" style="whiteSpace=wrap;html=1;aspect=fixed;container=0;fillColor=#f5f5f5;strokeColor=#666666;fontColor=#333333;" vertex="1" parent="1">
          <mxGeometry x="560" y="792" width="10" height="10" as="geometry" />
        </mxCell>
        <mxCell id="PxYYPepECbO49ryiqM4Z-384" value="" style="whiteSpace=wrap;html=1;aspect=fixed;container=0;fillColor=#f5f5f5;strokeColor=#666666;fontColor=#333333;" vertex="1" parent="1">
          <mxGeometry x="573" y="792" width="10" height="10" as="geometry" />
        </mxCell>
        <mxCell id="PxYYPepECbO49ryiqM4Z-385" value="" style="whiteSpace=wrap;html=1;aspect=fixed;container=0;fillColor=#f5f5f5;strokeColor=#666666;fontColor=#333333;" vertex="1" parent="1">
          <mxGeometry x="586" y="792" width="10" height="10" as="geometry" />
        </mxCell>
        <mxCell id="PxYYPepECbO49ryiqM4Z-386" value="" style="whiteSpace=wrap;html=1;aspect=fixed;container=0;fillColor=#f5f5f5;strokeColor=#666666;fontColor=#333333;" vertex="1" parent="1">
          <mxGeometry x="599" y="792" width="10" height="10" as="geometry" />
        </mxCell>
        <mxCell id="PxYYPepECbO49ryiqM4Z-387" value="" style="whiteSpace=wrap;html=1;aspect=fixed;container=0;fillColor=#f5f5f5;strokeColor=#666666;fontColor=#333333;" vertex="1" parent="1">
          <mxGeometry x="612" y="792" width="10" height="10" as="geometry" />
        </mxCell>
        <mxCell id="PxYYPepECbO49ryiqM4Z-389" value="" style="group;strokeWidth=0.5;" vertex="1" connectable="0" parent="1">
          <mxGeometry x="242" y="670" width="71.36" height="70" as="geometry" />
        </mxCell>
        <mxCell id="PxYYPepECbO49ryiqM4Z-390" value="" style="whiteSpace=wrap;html=1;aspect=fixed;strokeWidth=0.5;" vertex="1" parent="PxYYPepECbO49ryiqM4Z-389">
          <mxGeometry x="3" y="1.0499999999999998" width="65" height="65" as="geometry" />
        </mxCell>
        <mxCell id="PxYYPepECbO49ryiqM4Z-391" style="edgeStyle=none;rounded=1;orthogonalLoop=1;jettySize=auto;html=1;fillColor=#f8cecc;strokeColor=#b85450;curved=0;endArrow=none;startFill=0;exitX=0.5;exitY=0.5;exitDx=0;exitDy=0;exitPerimeter=0;strokeWidth=0.5;" edge="1" parent="PxYYPepECbO49ryiqM4Z-389" source="PxYYPepECbO49ryiqM4Z-401" target="PxYYPepECbO49ryiqM4Z-400">
          <mxGeometry relative="1" as="geometry">
            <mxPoint x="45.75108023383885" y="36.03448275862069" as="sourcePoint" />
            <mxPoint x="45.24273489790731" y="36.72413793103448" as="targetPoint" />
          </mxGeometry>
        </mxCell>
        <mxCell id="PxYYPepECbO49ryiqM4Z-392" style="edgeStyle=none;rounded=1;orthogonalLoop=1;jettySize=auto;html=1;fillColor=#ffe6cc;strokeColor=#d79b00;curved=0;endArrow=none;startFill=0;strokeWidth=0.5;" edge="1" parent="PxYYPepECbO49ryiqM4Z-389" source="PxYYPepECbO49ryiqM4Z-393" target="PxYYPepECbO49ryiqM4Z-394">
          <mxGeometry relative="1" as="geometry" />
        </mxCell>
        <mxCell id="PxYYPepECbO49ryiqM4Z-393" value="" style="ellipse;whiteSpace=wrap;html=1;aspect=fixed;fillColor=#ffe6cc;strokeColor=#d79b00;strokeWidth=0.5;" vertex="1" parent="PxYYPepECbO49ryiqM4Z-389">
          <mxGeometry x="49.64839447598069" y="3.103448275862069" width="3" height="3" as="geometry" />
        </mxCell>
        <mxCell id="PxYYPepECbO49ryiqM4Z-394" value="" style="ellipse;whiteSpace=wrap;html=1;aspect=fixed;fillColor=#ffe6cc;strokeColor=#d79b00;strokeWidth=0.5;" vertex="1" parent="PxYYPepECbO49ryiqM4Z-389">
          <mxGeometry x="43.971871558078455" y="11.551724137931034" width="3" height="3" as="geometry" />
        </mxCell>
        <mxCell id="PxYYPepECbO49ryiqM4Z-395" value="" style="ellipse;whiteSpace=wrap;html=1;aspect=fixed;fillColor=#ffe6cc;strokeColor=#d79b00;strokeWidth=0.5;" vertex="1" parent="PxYYPepECbO49ryiqM4Z-389">
          <mxGeometry x="38.88841819876303" y="18.448275862068964" width="3" height="3" as="geometry" />
        </mxCell>
        <mxCell id="PxYYPepECbO49ryiqM4Z-396" value="" style="ellipse;whiteSpace=wrap;html=1;aspect=fixed;fillColor=#ffe6cc;strokeColor=#d79b00;strokeWidth=0.5;" vertex="1" parent="PxYYPepECbO49ryiqM4Z-389">
          <mxGeometry x="34.48275862068965" y="24.310344827586206" width="3" height="3" as="geometry" />
        </mxCell>
        <mxCell id="PxYYPepECbO49ryiqM4Z-397" value="" style="ellipse;whiteSpace=wrap;html=1;aspect=fixed;fillColor=#ffe6cc;strokeColor=#d79b00;strokeWidth=0.5;" vertex="1" parent="PxYYPepECbO49ryiqM4Z-389">
          <mxGeometry x="30.754892823858338" y="30.344827586206893" width="3" height="3" as="geometry" />
        </mxCell>
        <mxCell id="PxYYPepECbO49ryiqM4Z-398" value="" style="ellipse;whiteSpace=wrap;html=1;aspect=fixed;fillColor=#ffe6cc;strokeColor=#d79b00;strokeWidth=0.5;" vertex="1" parent="PxYYPepECbO49ryiqM4Z-389">
          <mxGeometry x="28.97568414809794" y="36.63793103448276" width="3" height="3" as="geometry" />
        </mxCell>
        <mxCell id="PxYYPepECbO49ryiqM4Z-399" value="" style="ellipse;whiteSpace=wrap;html=1;aspect=fixed;fillColor=#f8cecc;strokeColor=#b85450;strokeWidth=0.5;" vertex="1" parent="PxYYPepECbO49ryiqM4Z-389">
          <mxGeometry x="49.05532491739388" y="22.413793103448278" width="3" height="3" as="geometry" />
        </mxCell>
        <mxCell id="PxYYPepECbO49ryiqM4Z-400" value="" style="ellipse;whiteSpace=wrap;html=1;aspect=fixed;fillColor=#f8cecc;strokeColor=#b85450;strokeWidth=0.5;" vertex="1" parent="PxYYPepECbO49ryiqM4Z-389">
          <mxGeometry x="38.71896975345251" y="37.24137931034483" width="3" height="3" as="geometry" />
        </mxCell>
        <mxCell id="PxYYPepECbO49ryiqM4Z-401" value="" style="ellipse;whiteSpace=wrap;html=1;aspect=fixed;fillColor=#f8cecc;strokeColor=#b85450;strokeWidth=0.5;" vertex="1" parent="PxYYPepECbO49ryiqM4Z-389">
          <mxGeometry x="41.43014487842074" y="34.6551724137931" width="3" height="3" as="geometry" />
        </mxCell>
        <mxCell id="PxYYPepECbO49ryiqM4Z-402" value="" style="ellipse;whiteSpace=wrap;html=1;aspect=fixed;fillColor=#e1d5e7;strokeColor=#9673a6;strokeWidth=0.5;" vertex="1" parent="PxYYPepECbO49ryiqM4Z-389">
          <mxGeometry x="59.05278319071422" y="36.89655172413793" width="3" height="3" as="geometry" />
        </mxCell>
        <mxCell id="PxYYPepECbO49ryiqM4Z-403" value="" style="ellipse;whiteSpace=wrap;html=1;aspect=fixed;fillColor=#e1d5e7;strokeColor=#9673a6;strokeWidth=0.5;" vertex="1" parent="PxYYPepECbO49ryiqM4Z-389">
          <mxGeometry x="64.13623655002965" y="28.96551724137931" width="3" height="3" as="geometry" />
        </mxCell>
        <mxCell id="PxYYPepECbO49ryiqM4Z-404" value="" style="ellipse;whiteSpace=wrap;html=1;aspect=fixed;fillColor=#e1d5e7;strokeColor=#9673a6;strokeWidth=0.5;" vertex="1" parent="PxYYPepECbO49ryiqM4Z-389">
          <mxGeometry x="55.83326272981445" y="40.172413793103445" width="3" height="3" as="geometry" />
        </mxCell>
        <mxCell id="PxYYPepECbO49ryiqM4Z-405" value="" style="ellipse;whiteSpace=wrap;html=1;aspect=fixed;fillColor=#e1d5e7;strokeColor=#9673a6;strokeWidth=0.5;" vertex="1" parent="PxYYPepECbO49ryiqM4Z-389">
          <mxGeometry x="52.10539693298314" y="44.13793103448276" width="3" height="3" as="geometry" />
        </mxCell>
        <mxCell id="PxYYPepECbO49ryiqM4Z-406" value="" style="ellipse;whiteSpace=wrap;html=1;aspect=fixed;fillColor=#e1d5e7;strokeColor=#9673a6;strokeWidth=0.5;" vertex="1" parent="PxYYPepECbO49ryiqM4Z-389">
          <mxGeometry x="48.37753113615182" y="47.068965517241374" width="3" height="3" as="geometry" />
        </mxCell>
        <mxCell id="PxYYPepECbO49ryiqM4Z-407" value="" style="ellipse;whiteSpace=wrap;html=1;aspect=fixed;fillColor=#d5e8d4;strokeColor=#82b366;strokeWidth=0.5;" vertex="1" parent="PxYYPepECbO49ryiqM4Z-389">
          <mxGeometry x="36.1772430737948" y="50.27586206896552" width="3" height="3" as="geometry" />
        </mxCell>
        <mxCell id="PxYYPepECbO49ryiqM4Z-408" value="" style="ellipse;whiteSpace=wrap;html=1;aspect=fixed;fillColor=#d5e8d4;strokeColor=#82b366;strokeWidth=0.5;" vertex="1" parent="PxYYPepECbO49ryiqM4Z-389">
          <mxGeometry x="33.12717105820554" y="54.37931034482759" width="3" height="3" as="geometry" />
        </mxCell>
        <mxCell id="PxYYPepECbO49ryiqM4Z-409" value="" style="ellipse;whiteSpace=wrap;html=1;aspect=fixed;fillColor=#d5e8d4;strokeColor=#82b366;strokeWidth=0.5;" vertex="1" parent="PxYYPepECbO49ryiqM4Z-389">
          <mxGeometry x="29.56875370668474" y="57.827586206896555" width="3" height="3" as="geometry" />
        </mxCell>
        <mxCell id="PxYYPepECbO49ryiqM4Z-410" value="" style="ellipse;whiteSpace=wrap;html=1;aspect=fixed;fillColor=#d5e8d4;strokeColor=#82b366;strokeWidth=0.5;" vertex="1" parent="PxYYPepECbO49ryiqM4Z-389">
          <mxGeometry x="26.179784800474454" y="59.55172413793103" width="3" height="3" as="geometry" />
        </mxCell>
        <mxCell id="PxYYPepECbO49ryiqM4Z-411" value="" style="ellipse;whiteSpace=wrap;html=1;aspect=fixed;fillColor=#d5e8d4;strokeColor=#82b366;strokeWidth=0.5;" vertex="1" parent="PxYYPepECbO49ryiqM4Z-389">
          <mxGeometry x="22.11302211302211" y="61.10344827586207" width="3" height="3" as="geometry" />
        </mxCell>
        <mxCell id="PxYYPepECbO49ryiqM4Z-412" style="edgeStyle=none;rounded=1;orthogonalLoop=1;jettySize=auto;html=1;exitX=0;exitY=1;exitDx=0;exitDy=0;fillColor=#ffe6cc;strokeColor=#d79b00;curved=0;endArrow=none;startFill=0;entryX=1;entryY=0;entryDx=0;entryDy=0;strokeWidth=0.5;" edge="1" parent="PxYYPepECbO49ryiqM4Z-389" target="PxYYPepECbO49ryiqM4Z-395">
          <mxGeometry relative="1" as="geometry">
            <mxPoint x="44.513547257663454" y="13.759189803258428" as="sourcePoint" />
            <mxPoint x="41.22736606945676" y="18.82701709329326" as="targetPoint" />
          </mxGeometry>
        </mxCell>
        <mxCell id="PxYYPepECbO49ryiqM4Z-413" style="edgeStyle=none;rounded=1;orthogonalLoop=1;jettySize=auto;html=1;fillColor=#ffe6cc;strokeColor=#d79b00;curved=0;endArrow=none;startFill=0;strokeWidth=0.5;" edge="1" parent="PxYYPepECbO49ryiqM4Z-389" source="PxYYPepECbO49ryiqM4Z-395" target="PxYYPepECbO49ryiqM4Z-396">
          <mxGeometry relative="1" as="geometry">
            <mxPoint x="46.20803171076861" y="15.655741527396357" as="sourcePoint" />
            <mxPoint x="42.61543675336785" y="20.525862068965512" as="targetPoint" />
          </mxGeometry>
        </mxCell>
        <mxCell id="PxYYPepECbO49ryiqM4Z-414" style="edgeStyle=none;rounded=1;orthogonalLoop=1;jettySize=auto;html=1;fillColor=#ffe6cc;strokeColor=#d79b00;curved=0;endArrow=none;startFill=0;strokeWidth=0.5;" edge="1" parent="PxYYPepECbO49ryiqM4Z-389" source="PxYYPepECbO49ryiqM4Z-396" target="PxYYPepECbO49ryiqM4Z-397">
          <mxGeometry relative="1" as="geometry">
            <mxPoint x="41.00652376514445" y="22.413793103448278" as="sourcePoint" />
            <mxPoint x="38.29534864017623" y="26.379310344827587" as="targetPoint" />
          </mxGeometry>
        </mxCell>
        <mxCell id="PxYYPepECbO49ryiqM4Z-415" style="edgeStyle=none;rounded=1;orthogonalLoop=1;jettySize=auto;html=1;fillColor=#ffe6cc;strokeColor=#d79b00;curved=0;endArrow=none;startFill=0;strokeWidth=0.5;" edge="1" parent="PxYYPepECbO49ryiqM4Z-389" source="PxYYPepECbO49ryiqM4Z-397" target="PxYYPepECbO49ryiqM4Z-398">
          <mxGeometry relative="1" as="geometry">
            <mxPoint x="36.7703126323816" y="28.448275862068968" as="sourcePoint" />
            <mxPoint x="34.3980343980344" y="32.24137931034483" as="targetPoint" />
          </mxGeometry>
        </mxCell>
        <mxCell id="PxYYPepECbO49ryiqM4Z-416" style="edgeStyle=none;rounded=1;orthogonalLoop=1;jettySize=auto;html=1;fillColor=#f8cecc;strokeColor=#b85450;curved=0;endArrow=none;startFill=0;strokeWidth=0.5;" edge="1" parent="PxYYPepECbO49ryiqM4Z-389" source="PxYYPepECbO49ryiqM4Z-399" target="PxYYPepECbO49ryiqM4Z-461">
          <mxGeometry relative="1" as="geometry">
            <mxPoint x="46.20803171076861" y="15.48332773429291" as="sourcePoint" />
            <mxPoint x="42.7010082182496" y="20.517241379310345" as="targetPoint" />
          </mxGeometry>
        </mxCell>
        <mxCell id="PxYYPepECbO49ryiqM4Z-417" style="edgeStyle=none;rounded=1;orthogonalLoop=1;jettySize=auto;html=1;fillColor=#f8cecc;strokeColor=#b85450;curved=0;endArrow=none;startFill=0;strokeWidth=0.5;" edge="1" parent="PxYYPepECbO49ryiqM4Z-389" source="PxYYPepECbO49ryiqM4Z-461" target="PxYYPepECbO49ryiqM4Z-462">
          <mxGeometry relative="1" as="geometry">
            <mxPoint x="51.34287892908582" y="26.55172413793104" as="sourcePoint" />
            <mxPoint x="49.98729136660171" y="29.31034482758621" as="targetPoint" />
          </mxGeometry>
        </mxCell>
        <mxCell id="PxYYPepECbO49ryiqM4Z-418" style="edgeStyle=none;rounded=1;orthogonalLoop=1;jettySize=auto;html=1;fillColor=#f8cecc;strokeColor=#b85450;curved=0;endArrow=none;startFill=0;strokeWidth=0.5;" edge="1" parent="PxYYPepECbO49ryiqM4Z-389" source="PxYYPepECbO49ryiqM4Z-462" target="PxYYPepECbO49ryiqM4Z-401">
          <mxGeometry relative="1" as="geometry">
            <mxPoint x="48.63170380411759" y="31.551724137931036" as="sourcePoint" />
            <mxPoint x="47.276116241633474" y="33.96551724137932" as="targetPoint" />
          </mxGeometry>
        </mxCell>
        <mxCell id="PxYYPepECbO49ryiqM4Z-419" style="edgeStyle=none;rounded=1;orthogonalLoop=1;jettySize=auto;html=1;fillColor=#f8cecc;strokeColor=#b85450;curved=0;endArrow=none;startFill=0;strokeWidth=0.5;" edge="1" parent="PxYYPepECbO49ryiqM4Z-389" source="PxYYPepECbO49ryiqM4Z-400" target="PxYYPepECbO49ryiqM4Z-450">
          <mxGeometry relative="1" as="geometry">
            <mxPoint x="44.395492671354745" y="37.758620689655174" as="sourcePoint" />
            <mxPoint x="42.7010082182496" y="39.310344827586206" as="targetPoint" />
          </mxGeometry>
        </mxCell>
        <mxCell id="PxYYPepECbO49ryiqM4Z-420" style="edgeStyle=none;rounded=1;orthogonalLoop=1;jettySize=auto;html=1;fillColor=#e1d5e7;strokeColor=#9673a6;curved=0;endArrow=none;startFill=0;strokeWidth=0.5;" edge="1" parent="PxYYPepECbO49ryiqM4Z-389" source="PxYYPepECbO49ryiqM4Z-405" target="PxYYPepECbO49ryiqM4Z-406">
          <mxGeometry relative="1" as="geometry">
            <mxPoint x="52.10539693298314" y="45.862068965517246" as="sourcePoint" />
            <mxPoint x="51.427603151741074" y="47.24137931034484" as="targetPoint" />
          </mxGeometry>
        </mxCell>
        <mxCell id="PxYYPepECbO49ryiqM4Z-421" style="edgeStyle=none;rounded=1;orthogonalLoop=1;jettySize=auto;html=1;fillColor=#e1d5e7;strokeColor=#9673a6;curved=0;endArrow=none;startFill=0;strokeWidth=0.5;" edge="1" parent="PxYYPepECbO49ryiqM4Z-389" source="PxYYPepECbO49ryiqM4Z-404" target="PxYYPepECbO49ryiqM4Z-405">
          <mxGeometry relative="1" as="geometry">
            <mxPoint x="54.05405405405405" y="47.93103448275864" as="sourcePoint" />
            <mxPoint x="52.35956960094891" y="49.31034482758621" as="targetPoint" />
          </mxGeometry>
        </mxCell>
        <mxCell id="PxYYPepECbO49ryiqM4Z-422" style="edgeStyle=none;rounded=1;orthogonalLoop=1;jettySize=auto;html=1;fillColor=#e1d5e7;strokeColor=#9673a6;curved=0;endArrow=none;startFill=0;strokeWidth=0.5;" edge="1" parent="PxYYPepECbO49ryiqM4Z-389" source="PxYYPepECbO49ryiqM4Z-404" target="PxYYPepECbO49ryiqM4Z-402">
          <mxGeometry relative="1" as="geometry">
            <mxPoint x="57.95136829619588" y="44.13793103448276" as="sourcePoint" />
            <mxPoint x="55.91798695246971" y="46.206896551724135" as="targetPoint" />
          </mxGeometry>
        </mxCell>
        <mxCell id="PxYYPepECbO49ryiqM4Z-423" style="edgeStyle=none;rounded=1;orthogonalLoop=1;jettySize=auto;html=1;fillColor=#e1d5e7;strokeColor=#9673a6;curved=0;endArrow=none;startFill=0;strokeWidth=0.5;" edge="1" parent="PxYYPepECbO49ryiqM4Z-389" source="PxYYPepECbO49ryiqM4Z-463" target="PxYYPepECbO49ryiqM4Z-402">
          <mxGeometry relative="1" as="geometry">
            <mxPoint x="59.64585274930102" y="42.24137931034483" as="sourcePoint" />
            <mxPoint x="61.17088875709564" y="40.862068965517246" as="targetPoint" />
          </mxGeometry>
        </mxCell>
        <mxCell id="PxYYPepECbO49ryiqM4Z-424" style="edgeStyle=none;rounded=1;orthogonalLoop=1;jettySize=auto;html=1;fillColor=#e1d5e7;strokeColor=#9673a6;curved=0;endArrow=none;startFill=0;strokeWidth=0.5;" edge="1" parent="PxYYPepECbO49ryiqM4Z-389" source="PxYYPepECbO49ryiqM4Z-463" target="PxYYPepECbO49ryiqM4Z-403">
          <mxGeometry relative="1" as="geometry">
            <mxPoint x="63.71261543675337" y="36.55172413793104" as="sourcePoint" />
            <mxPoint x="62.69592476489028" y="38.793103448275865" as="targetPoint" />
          </mxGeometry>
        </mxCell>
        <mxCell id="PxYYPepECbO49ryiqM4Z-425" style="edgeStyle=none;rounded=1;orthogonalLoop=1;jettySize=auto;html=1;fillColor=#d5e8d4;strokeColor=#82b366;curved=0;endArrow=none;startFill=0;strokeWidth=0.5;" edge="1" parent="PxYYPepECbO49ryiqM4Z-389" source="PxYYPepECbO49ryiqM4Z-454" target="PxYYPepECbO49ryiqM4Z-407">
          <mxGeometry relative="1" as="geometry">
            <mxPoint x="41.00652376514445" y="51.72413793103449" as="sourcePoint" />
            <mxPoint x="40.3287299839024" y="53.10344827586208" as="targetPoint" />
          </mxGeometry>
        </mxCell>
        <mxCell id="PxYYPepECbO49ryiqM4Z-426" style="edgeStyle=none;rounded=1;orthogonalLoop=1;jettySize=auto;html=1;fillColor=#d5e8d4;strokeColor=#82b366;curved=0;endArrow=none;startFill=0;strokeWidth=0.5;" edge="1" parent="PxYYPepECbO49ryiqM4Z-389" source="PxYYPepECbO49ryiqM4Z-407" target="PxYYPepECbO49ryiqM4Z-408">
          <mxGeometry relative="1" as="geometry">
            <mxPoint x="42.36211132762856" y="52.068965517241374" as="sourcePoint" />
            <mxPoint x="39.98983309328137" y="55.3448275862069" as="targetPoint" />
          </mxGeometry>
        </mxCell>
        <mxCell id="PxYYPepECbO49ryiqM4Z-427" style="edgeStyle=none;rounded=1;orthogonalLoop=1;jettySize=auto;html=1;fillColor=#d5e8d4;strokeColor=#82b366;curved=0;endArrow=none;startFill=0;strokeWidth=0.5;" edge="1" parent="PxYYPepECbO49ryiqM4Z-389" source="PxYYPepECbO49ryiqM4Z-408" target="PxYYPepECbO49ryiqM4Z-409">
          <mxGeometry relative="1" as="geometry">
            <mxPoint x="38.29534864017623" y="57.24137931034483" as="sourcePoint" />
            <mxPoint x="36.93976107769211" y="58.44827586206897" as="targetPoint" />
          </mxGeometry>
        </mxCell>
        <mxCell id="PxYYPepECbO49ryiqM4Z-428" style="edgeStyle=none;rounded=1;orthogonalLoop=1;jettySize=auto;html=1;fillColor=#d5e8d4;strokeColor=#82b366;curved=0;endArrow=none;startFill=0;strokeWidth=0.5;" edge="1" parent="PxYYPepECbO49ryiqM4Z-389" source="PxYYPepECbO49ryiqM4Z-409" target="PxYYPepECbO49ryiqM4Z-410">
          <mxGeometry relative="1" as="geometry">
            <mxPoint x="35.245276624586964" y="60.344827586206904" as="sourcePoint" />
            <mxPoint x="33.381343726171316" y="61.896551724137936" as="targetPoint" />
          </mxGeometry>
        </mxCell>
        <mxCell id="PxYYPepECbO49ryiqM4Z-429" style="edgeStyle=none;rounded=1;orthogonalLoop=1;jettySize=auto;html=1;fillColor=#d5e8d4;strokeColor=#82b366;curved=0;endArrow=none;startFill=0;strokeWidth=0.5;" edge="1" parent="PxYYPepECbO49ryiqM4Z-389" source="PxYYPepECbO49ryiqM4Z-410" target="PxYYPepECbO49ryiqM4Z-411">
          <mxGeometry relative="1" as="geometry">
            <mxPoint x="31.34796238244514" y="63.448275862068975" as="sourcePoint" />
            <mxPoint x="30.331271710582058" y="63.96551724137932" as="targetPoint" />
          </mxGeometry>
        </mxCell>
        <mxCell id="PxYYPepECbO49ryiqM4Z-430" style="edgeStyle=none;rounded=1;orthogonalLoop=1;jettySize=auto;html=1;fillColor=#dae8fc;strokeColor=#6c8ebf;curved=0;endArrow=none;startFill=0;strokeWidth=0.5;" edge="1" parent="PxYYPepECbO49ryiqM4Z-389" source="PxYYPepECbO49ryiqM4Z-455" target="PxYYPepECbO49ryiqM4Z-457">
          <mxGeometry relative="1" as="geometry">
            <mxPoint x="42.36211132762856" y="52.068965517241374" as="sourcePoint" />
            <mxPoint x="39.98983309328137" y="55.3448275862069" as="targetPoint" />
          </mxGeometry>
        </mxCell>
        <mxCell id="PxYYPepECbO49ryiqM4Z-431" style="edgeStyle=none;rounded=1;orthogonalLoop=1;jettySize=auto;html=1;fillColor=#dae8fc;strokeColor=#6c8ebf;curved=0;endArrow=none;startFill=0;strokeWidth=0.5;" edge="1" parent="PxYYPepECbO49ryiqM4Z-389" source="PxYYPepECbO49ryiqM4Z-456" target="PxYYPepECbO49ryiqM4Z-455">
          <mxGeometry relative="1" as="geometry">
            <mxPoint x="26.433957468440227" y="54.310344827586206" as="sourcePoint" />
            <mxPoint x="28.12844192154537" y="53.62068965517243" as="targetPoint" />
          </mxGeometry>
        </mxCell>
        <mxCell id="PxYYPepECbO49ryiqM4Z-432" style="edgeStyle=none;rounded=1;orthogonalLoop=1;jettySize=auto;html=1;fillColor=#dae8fc;strokeColor=#6c8ebf;curved=0;endArrow=none;startFill=0;strokeWidth=0.5;" edge="1" parent="PxYYPepECbO49ryiqM4Z-389" source="PxYYPepECbO49ryiqM4Z-458" target="PxYYPepECbO49ryiqM4Z-456">
          <mxGeometry relative="1" as="geometry">
            <mxPoint x="23.214437007540457" y="55.862068965517246" as="sourcePoint" />
            <mxPoint x="24.061679234093024" y="55.51724137931034" as="targetPoint" />
          </mxGeometry>
        </mxCell>
        <mxCell id="PxYYPepECbO49ryiqM4Z-433" style="edgeStyle=none;rounded=1;orthogonalLoop=1;jettySize=auto;html=1;fillColor=#dae8fc;strokeColor=#6c8ebf;curved=0;endArrow=none;startFill=0;strokeWidth=0.5;" edge="1" parent="PxYYPepECbO49ryiqM4Z-389" source="PxYYPepECbO49ryiqM4Z-459" target="PxYYPepECbO49ryiqM4Z-458">
          <mxGeometry relative="1" as="geometry">
            <mxPoint x="19.82546810133017" y="57.06896551724139" as="sourcePoint" />
            <mxPoint x="20.842158773193255" y="56.896551724137936" as="targetPoint" />
          </mxGeometry>
        </mxCell>
        <mxCell id="PxYYPepECbO49ryiqM4Z-434" style="edgeStyle=none;rounded=1;orthogonalLoop=1;jettySize=auto;html=1;fillColor=#dae8fc;strokeColor=#6c8ebf;curved=0;endArrow=none;startFill=0;strokeWidth=0.5;" edge="1" parent="PxYYPepECbO49ryiqM4Z-389" source="PxYYPepECbO49ryiqM4Z-460" target="PxYYPepECbO49ryiqM4Z-459">
          <mxGeometry relative="1" as="geometry">
            <mxPoint x="16.436499195119886" y="57.93103448275862" as="sourcePoint" />
            <mxPoint x="17.45318986698297" y="57.75862068965517" as="targetPoint" />
          </mxGeometry>
        </mxCell>
        <mxCell id="PxYYPepECbO49ryiqM4Z-435" style="edgeStyle=none;rounded=1;orthogonalLoop=1;jettySize=auto;html=1;fillColor=#ffe6cc;strokeColor=light-dark(#929292, #996500);curved=0;endArrow=none;startFill=0;opacity=60;dashed=1;strokeWidth=0.5;" edge="1" parent="PxYYPepECbO49ryiqM4Z-389" source="PxYYPepECbO49ryiqM4Z-393" target="PxYYPepECbO49ryiqM4Z-399">
          <mxGeometry relative="1" as="geometry">
            <mxPoint x="53.32486641381274" y="5.689086058813062" as="sourcePoint" />
            <mxPoint x="50.91925781580954" y="15.74137931034482" as="targetPoint" />
          </mxGeometry>
        </mxCell>
        <mxCell id="PxYYPepECbO49ryiqM4Z-436" style="edgeStyle=none;rounded=1;orthogonalLoop=1;jettySize=auto;html=1;fillColor=#ffe6cc;strokeColor=light-dark(#929292, #996500);curved=0;endArrow=none;startFill=0;opacity=60;dashed=1;strokeWidth=0.5;" edge="1" parent="PxYYPepECbO49ryiqM4Z-389" source="PxYYPepECbO49ryiqM4Z-403" target="PxYYPepECbO49ryiqM4Z-399">
          <mxGeometry relative="1" as="geometry">
            <mxPoint x="52.52901804625943" y="7.3275862068965525" as="sourcePoint" />
            <mxPoint x="52.02067271032788" y="24.224137931034484" as="targetPoint" />
          </mxGeometry>
        </mxCell>
        <mxCell id="PxYYPepECbO49ryiqM4Z-437" style="edgeStyle=none;rounded=1;orthogonalLoop=1;jettySize=auto;html=1;fillColor=#ffe6cc;strokeColor=light-dark(#929292, #996500);curved=0;endArrow=none;startFill=0;opacity=60;dashed=1;strokeWidth=0.5;" edge="1" parent="PxYYPepECbO49ryiqM4Z-389" source="PxYYPepECbO49ryiqM4Z-454" target="PxYYPepECbO49ryiqM4Z-399">
          <mxGeometry relative="1" as="geometry">
            <mxPoint x="65.91544522579005" y="31.465517241379313" as="sourcePoint" />
            <mxPoint x="53.20681182750149" y="25.948275862068968" as="targetPoint" />
          </mxGeometry>
        </mxCell>
        <mxCell id="PxYYPepECbO49ryiqM4Z-438" style="edgeStyle=none;rounded=1;orthogonalLoop=1;jettySize=auto;html=1;fillColor=#ffe6cc;strokeColor=light-dark(#929292, #996500);curved=0;endArrow=none;startFill=0;opacity=60;dashed=1;strokeWidth=0.5;" edge="1" parent="PxYYPepECbO49ryiqM4Z-389" source="PxYYPepECbO49ryiqM4Z-457" target="PxYYPepECbO49ryiqM4Z-399">
          <mxGeometry relative="1" as="geometry">
            <mxPoint x="43.548250444802164" y="49.913793103448285" as="sourcePoint" />
            <mxPoint x="51.68177581970686" y="26.63793103448276" as="targetPoint" />
          </mxGeometry>
        </mxCell>
        <mxCell id="PxYYPepECbO49ryiqM4Z-439" style="edgeStyle=none;rounded=1;orthogonalLoop=1;jettySize=auto;html=1;fillColor=#ffe6cc;strokeColor=light-dark(#929292, #996500);curved=0;endArrow=none;startFill=0;opacity=60;dashed=1;strokeWidth=0.5;" edge="1" parent="PxYYPepECbO49ryiqM4Z-389" source="PxYYPepECbO49ryiqM4Z-457" target="PxYYPepECbO49ryiqM4Z-454">
          <mxGeometry relative="1" as="geometry">
            <mxPoint x="30.161823265271543" y="51.98275862068966" as="sourcePoint" />
            <mxPoint x="51.17343048377531" y="26.465517241379313" as="targetPoint" />
          </mxGeometry>
        </mxCell>
        <mxCell id="PxYYPepECbO49ryiqM4Z-440" style="edgeStyle=none;rounded=1;orthogonalLoop=1;jettySize=auto;html=1;fillColor=#ffe6cc;strokeColor=light-dark(#929292, #996500);curved=0;endArrow=none;startFill=0;opacity=60;dashed=1;exitX=0;exitY=1;exitDx=0;exitDy=0;strokeWidth=0.5;" edge="1" parent="PxYYPepECbO49ryiqM4Z-389" source="PxYYPepECbO49ryiqM4Z-403" target="PxYYPepECbO49ryiqM4Z-454">
          <mxGeometry relative="1" as="geometry">
            <mxPoint x="30.500720155892573" y="52.844827586206904" as="sourcePoint" />
            <mxPoint x="42.02321443700753" y="51.293103448275865" as="targetPoint" />
          </mxGeometry>
        </mxCell>
        <mxCell id="PxYYPepECbO49ryiqM4Z-441" style="edgeStyle=none;rounded=1;orthogonalLoop=1;jettySize=auto;html=1;fillColor=#ffe6cc;strokeColor=light-dark(#929292, #996500);curved=0;endArrow=none;startFill=0;opacity=60;dashed=1;strokeWidth=0.5;" edge="1" parent="PxYYPepECbO49ryiqM4Z-389" source="PxYYPepECbO49ryiqM4Z-393" target="PxYYPepECbO49ryiqM4Z-403">
          <mxGeometry relative="1" as="geometry">
            <mxPoint x="66.25434211641108" y="32.8448275862069" as="sourcePoint" />
            <mxPoint x="44.22604422604422" y="50.25862068965518" as="targetPoint" />
          </mxGeometry>
        </mxCell>
        <mxCell id="PxYYPepECbO49ryiqM4Z-442" style="edgeStyle=none;rounded=1;orthogonalLoop=1;jettySize=auto;html=1;fillColor=#ffe6cc;strokeColor=light-dark(#929292, #996500);curved=0;endArrow=none;startFill=0;opacity=60;dashed=1;strokeWidth=0.5;" edge="1" parent="PxYYPepECbO49ryiqM4Z-389" source="PxYYPepECbO49ryiqM4Z-393" target="PxYYPepECbO49ryiqM4Z-457">
          <mxGeometry relative="1" as="geometry">
            <mxPoint x="53.20681182750149" y="7.3275862068965525" as="sourcePoint" />
            <mxPoint x="66.42379056172159" y="30.775862068965516" as="targetPoint" />
          </mxGeometry>
        </mxCell>
        <mxCell id="PxYYPepECbO49ryiqM4Z-443" style="edgeStyle=none;rounded=1;orthogonalLoop=1;jettySize=auto;html=1;fillColor=#ffe6cc;strokeColor=light-dark(#929292, #996500);curved=0;endArrow=none;startFill=0;opacity=60;dashed=1;strokeWidth=0.5;" edge="1" parent="PxYYPepECbO49ryiqM4Z-389" source="PxYYPepECbO49ryiqM4Z-398" target="PxYYPepECbO49ryiqM4Z-450">
          <mxGeometry relative="1" as="geometry">
            <mxPoint x="52.02067271032788" y="7.3275862068965525" as="sourcePoint" />
            <mxPoint x="29.82292637465051" y="51.810344827586206" as="targetPoint" />
          </mxGeometry>
        </mxCell>
        <mxCell id="PxYYPepECbO49ryiqM4Z-444" style="edgeStyle=none;rounded=1;orthogonalLoop=1;jettySize=auto;html=1;fillColor=#ffe6cc;strokeColor=light-dark(#929292, #996500);curved=0;endArrow=none;startFill=0;opacity=60;dashed=1;strokeWidth=0.5;" edge="1" parent="PxYYPepECbO49ryiqM4Z-389" source="PxYYPepECbO49ryiqM4Z-398" target="PxYYPepECbO49ryiqM4Z-411">
          <mxGeometry relative="1" as="geometry">
            <mxPoint x="33.04244683555028" y="40.258620689655174" as="sourcePoint" />
            <mxPoint x="38.46479708548674" y="43.189655172413794" as="targetPoint" />
          </mxGeometry>
        </mxCell>
        <mxCell id="PxYYPepECbO49ryiqM4Z-445" style="edgeStyle=none;rounded=1;orthogonalLoop=1;jettySize=auto;html=1;fillColor=#ffe6cc;strokeColor=light-dark(#929292, #996500);curved=0;endArrow=none;startFill=0;opacity=60;dashed=1;strokeWidth=0.5;" edge="1" parent="PxYYPepECbO49ryiqM4Z-389" source="PxYYPepECbO49ryiqM4Z-450" target="PxYYPepECbO49ryiqM4Z-454">
          <mxGeometry relative="1" as="geometry">
            <mxPoint x="32.87299839023977" y="40.60344827586207" as="sourcePoint" />
            <mxPoint x="42.36211132762856" y="50.25862068965518" as="targetPoint" />
          </mxGeometry>
        </mxCell>
        <mxCell id="PxYYPepECbO49ryiqM4Z-446" style="edgeStyle=none;rounded=1;orthogonalLoop=1;jettySize=auto;html=1;fillColor=#ffe6cc;strokeColor=light-dark(#929292, #996500);curved=0;endArrow=none;startFill=0;opacity=60;dashed=1;entryX=1;entryY=0;entryDx=0;entryDy=0;strokeWidth=0.5;" edge="1" parent="PxYYPepECbO49ryiqM4Z-389" source="PxYYPepECbO49ryiqM4Z-450" target="PxYYPepECbO49ryiqM4Z-411">
          <mxGeometry relative="1" as="geometry">
            <mxPoint x="40.159281538591884" y="45.08620689655173" as="sourcePoint" />
            <mxPoint x="42.7010082182496" y="49.913793103448285" as="targetPoint" />
          </mxGeometry>
        </mxCell>
        <mxCell id="PxYYPepECbO49ryiqM4Z-447" style="edgeStyle=none;rounded=1;orthogonalLoop=1;jettySize=auto;html=1;fillColor=#ffe6cc;strokeColor=light-dark(#929292, #996500);curved=0;endArrow=none;startFill=0;opacity=60;dashed=1;exitX=0;exitY=0;exitDx=0;exitDy=0;strokeWidth=0.5;" edge="1" parent="PxYYPepECbO49ryiqM4Z-389" source="PxYYPepECbO49ryiqM4Z-411" target="PxYYPepECbO49ryiqM4Z-460">
          <mxGeometry relative="1" as="geometry">
            <mxPoint x="38.97314242141828" y="44.913793103448285" as="sourcePoint" />
            <mxPoint x="25.925612132508682" y="65.25862068965517" as="targetPoint" />
          </mxGeometry>
        </mxCell>
        <mxCell id="PxYYPepECbO49ryiqM4Z-448" style="edgeStyle=none;rounded=1;orthogonalLoop=1;jettySize=auto;html=1;fillColor=#ffe6cc;strokeColor=light-dark(#929292, #996500);curved=0;endArrow=none;startFill=0;opacity=60;dashed=1;strokeWidth=0.5;" edge="1" parent="PxYYPepECbO49ryiqM4Z-389" source="PxYYPepECbO49ryiqM4Z-398" target="PxYYPepECbO49ryiqM4Z-460">
          <mxGeometry relative="1" as="geometry">
            <mxPoint x="24.231127679403542" y="65.25862068965517" as="sourcePoint" />
            <mxPoint x="12.878081843599084" y="59.224137931034484" as="targetPoint" />
          </mxGeometry>
        </mxCell>
        <mxCell id="PxYYPepECbO49ryiqM4Z-449" style="edgeStyle=none;rounded=1;orthogonalLoop=1;jettySize=auto;html=1;fillColor=#ffe6cc;strokeColor=light-dark(#929292, #996500);curved=0;endArrow=none;startFill=0;opacity=60;dashed=1;strokeWidth=0.5;" edge="1" parent="PxYYPepECbO49ryiqM4Z-389" source="PxYYPepECbO49ryiqM4Z-398" target="PxYYPepECbO49ryiqM4Z-406">
          <mxGeometry relative="1" as="geometry">
            <mxPoint x="31.00906549182411" y="40.60344827586207" as="sourcePoint" />
            <mxPoint x="12.708633398288569" y="57.84482758620691" as="targetPoint" />
          </mxGeometry>
        </mxCell>
        <mxCell id="PxYYPepECbO49ryiqM4Z-450" value="" style="ellipse;whiteSpace=wrap;html=1;aspect=fixed;fillColor=#f8cecc;strokeColor=#b85450;strokeWidth=0.5;" vertex="1" parent="PxYYPepECbO49ryiqM4Z-389">
          <mxGeometry x="36.685588409726336" y="40.862068965517246" width="3" height="3" as="geometry" />
        </mxCell>
        <mxCell id="PxYYPepECbO49ryiqM4Z-451" style="edgeStyle=none;rounded=1;orthogonalLoop=1;jettySize=auto;html=1;fillColor=#ffe6cc;strokeColor=light-dark(#929292, #996500);curved=0;endArrow=none;startFill=0;opacity=60;dashed=1;entryX=1;entryY=0;entryDx=0;entryDy=0;exitX=0;exitY=1;exitDx=0;exitDy=0;strokeWidth=0.5;" edge="1" parent="PxYYPepECbO49ryiqM4Z-389" source="PxYYPepECbO49ryiqM4Z-450" target="PxYYPepECbO49ryiqM4Z-460">
          <mxGeometry relative="1" as="geometry">
            <mxPoint x="33.04244683555028" y="40.258620689655174" as="sourcePoint" />
            <mxPoint x="50.15673981191223" y="49.56896551724138" as="targetPoint" />
          </mxGeometry>
        </mxCell>
        <mxCell id="PxYYPepECbO49ryiqM4Z-452" style="edgeStyle=none;rounded=1;orthogonalLoop=1;jettySize=auto;html=1;fillColor=#ffe6cc;strokeColor=light-dark(#929292, #996500);curved=0;endArrow=none;startFill=0;opacity=60;dashed=1;entryX=0.647;entryY=0.233;entryDx=0;entryDy=0;entryPerimeter=0;strokeWidth=0.5;" edge="1" parent="PxYYPepECbO49ryiqM4Z-389" source="PxYYPepECbO49ryiqM4Z-406" target="PxYYPepECbO49ryiqM4Z-460">
          <mxGeometry relative="1" as="geometry">
            <mxPoint x="38.803693976107766" y="44.741379310344826" as="sourcePoint" />
            <mxPoint x="12.539184952978058" y="57.84482758620691" as="targetPoint" />
          </mxGeometry>
        </mxCell>
        <mxCell id="PxYYPepECbO49ryiqM4Z-453" style="edgeStyle=none;rounded=1;orthogonalLoop=1;jettySize=auto;html=1;fillColor=#ffe6cc;strokeColor=light-dark(#929292, #996500);curved=0;endArrow=none;startFill=0;opacity=60;dashed=1;strokeWidth=0.5;" edge="1" parent="PxYYPepECbO49ryiqM4Z-389" source="PxYYPepECbO49ryiqM4Z-393">
          <mxGeometry relative="1" as="geometry">
            <mxPoint x="53.20681182750149" y="7.3275862068965525" as="sourcePoint" />
            <mxPoint x="41.51486910107599" y="49.913793103448285" as="targetPoint" />
          </mxGeometry>
        </mxCell>
        <mxCell id="PxYYPepECbO49ryiqM4Z-454" value="" style="ellipse;whiteSpace=wrap;html=1;aspect=fixed;fillColor=#d5e8d4;strokeColor=#82b366;strokeWidth=0.5;" vertex="1" parent="PxYYPepECbO49ryiqM4Z-389">
          <mxGeometry x="40.24400576124714" y="46.10344827586207" width="3" height="3" as="geometry" />
        </mxCell>
        <mxCell id="PxYYPepECbO49ryiqM4Z-455" value="" style="ellipse;whiteSpace=wrap;html=1;aspect=fixed;fillColor=#dae8fc;strokeColor=#6c8ebf;strokeWidth=0.5;" vertex="1" parent="PxYYPepECbO49ryiqM4Z-389">
          <mxGeometry x="23.282470558332626" y="51.896551724137936" width="3" height="3" as="geometry" />
        </mxCell>
        <mxCell id="PxYYPepECbO49ryiqM4Z-456" value="" style="ellipse;whiteSpace=wrap;html=1;aspect=fixed;fillColor=#dae8fc;strokeColor=#6c8ebf;strokeWidth=0.5;" vertex="1" parent="PxYYPepECbO49ryiqM4Z-389">
          <mxGeometry x="20.062950097432854" y="53.44827586206896" width="3" height="3" as="geometry" />
        </mxCell>
        <mxCell id="PxYYPepECbO49ryiqM4Z-457" value="" style="ellipse;whiteSpace=wrap;html=1;aspect=fixed;fillColor=#dae8fc;strokeColor=#6c8ebf;strokeWidth=0.5;" vertex="1" parent="PxYYPepECbO49ryiqM4Z-389">
          <mxGeometry x="27.349233245784973" y="49.00000000000001" width="3" height="3" as="geometry" />
        </mxCell>
        <mxCell id="PxYYPepECbO49ryiqM4Z-458" value="" style="ellipse;whiteSpace=wrap;html=1;aspect=fixed;fillColor=#dae8fc;strokeColor=#6c8ebf;strokeWidth=0.5;" vertex="1" parent="PxYYPepECbO49ryiqM4Z-389">
          <mxGeometry x="16.67398119122257" y="54.48275862068965" width="3" height="3" as="geometry" />
        </mxCell>
        <mxCell id="PxYYPepECbO49ryiqM4Z-459" value="" style="ellipse;whiteSpace=wrap;html=1;aspect=fixed;fillColor=#dae8fc;strokeColor=#6c8ebf;strokeWidth=0.5;" vertex="1" parent="PxYYPepECbO49ryiqM4Z-389">
          <mxGeometry x="12.285012285012284" y="56.17241379310345" width="3" height="3" as="geometry" />
        </mxCell>
        <mxCell id="PxYYPepECbO49ryiqM4Z-460" value="" style="ellipse;whiteSpace=wrap;html=1;aspect=fixed;fillColor=#dae8fc;strokeColor=#6c8ebf;strokeWidth=0.5;" vertex="1" parent="PxYYPepECbO49ryiqM4Z-389">
          <mxGeometry x="7.726594933491485" y="55.6896551724138" width="3" height="3" as="geometry" />
        </mxCell>
        <mxCell id="PxYYPepECbO49ryiqM4Z-461" value="" style="ellipse;whiteSpace=wrap;html=1;aspect=fixed;fillColor=#f8cecc;strokeColor=#b85450;strokeWidth=0.5;" vertex="1" parent="PxYYPepECbO49ryiqM4Z-389">
          <mxGeometry x="46.34414979242566" y="27.41379310344828" width="3" height="3" as="geometry" />
        </mxCell>
        <mxCell id="PxYYPepECbO49ryiqM4Z-462" value="" style="ellipse;whiteSpace=wrap;html=1;aspect=fixed;fillColor=#f8cecc;strokeColor=#b85450;strokeWidth=0.5;" vertex="1" parent="PxYYPepECbO49ryiqM4Z-389">
          <mxGeometry x="43.63297466745742" y="32.06896551724138" width="3" height="3" as="geometry" />
        </mxCell>
        <mxCell id="PxYYPepECbO49ryiqM4Z-463" value="" style="ellipse;whiteSpace=wrap;html=1;aspect=fixed;fillColor=#e1d5e7;strokeColor=#9673a6;strokeWidth=0.5;" vertex="1" parent="PxYYPepECbO49ryiqM4Z-389">
          <mxGeometry x="61.42506142506142" y="32.413793103448285" width="3" height="3" as="geometry" />
        </mxCell>
        <mxCell id="PxYYPepECbO49ryiqM4Z-466" value="" style="group;strokeWidth=0.5;" vertex="1" connectable="0" parent="1">
          <mxGeometry x="242" y="760" width="71.36" height="70" as="geometry" />
        </mxCell>
        <mxCell id="PxYYPepECbO49ryiqM4Z-467" value="" style="whiteSpace=wrap;html=1;aspect=fixed;strokeWidth=0.5;" vertex="1" parent="PxYYPepECbO49ryiqM4Z-466">
          <mxGeometry x="3" y="1.0499999999999998" width="65" height="65" as="geometry" />
        </mxCell>
        <mxCell id="PxYYPepECbO49ryiqM4Z-541" value="&lt;font style=&quot;font-size: 9px;&quot;&gt;Spatial-Temporal Graph&lt;/font&gt;" style="rounded=1;whiteSpace=wrap;html=1;strokeColor=none;fillColor=none;" vertex="1" parent="1">
          <mxGeometry x="233.38" y="831.551724137931" width="104.62" height="24" as="geometry" />
        </mxCell>
        <mxCell id="PxYYPepECbO49ryiqM4Z-542" value="&lt;font style=&quot;font-size: 9px;&quot;&gt;Attention Matrix&lt;/font&gt;" style="rounded=1;whiteSpace=wrap;html=1;strokeColor=none;fillColor=none;" vertex="1" parent="1">
          <mxGeometry x="381.38" y="831.551724137931" width="106.62" height="24" as="geometry" />
        </mxCell>
        <mxCell id="PxYYPepECbO49ryiqM4Z-543" value="&lt;font style=&quot;font-size: 8px;&quot;&gt;Nodes&lt;/font&gt;" style="rounded=1;whiteSpace=wrap;html=1;strokeColor=none;fillColor=none;rotation=0;" vertex="1" parent="1">
          <mxGeometry x="322.76" y="730" width="97.24" height="25" as="geometry" />
        </mxCell>
        <mxCell id="PxYYPepECbO49ryiqM4Z-544" value="&lt;span style=&quot;font-size: 8px;&quot;&gt;Features&lt;/span&gt;" style="rounded=1;whiteSpace=wrap;html=1;strokeColor=none;fillColor=none;rotation=0;" vertex="1" parent="1">
          <mxGeometry x="407.76" y="651" width="52.24" height="15" as="geometry" />
        </mxCell>
        <mxCell id="PxYYPepECbO49ryiqM4Z-547" value="" style="shape=curlyBracket;whiteSpace=wrap;html=1;rounded=1;labelPosition=left;verticalLabelPosition=middle;align=right;verticalAlign=middle;rotation=90;" vertex="1" parent="1">
          <mxGeometry x="428" y="635" width="13" height="69" as="geometry" />
        </mxCell>
        <mxCell id="PxYYPepECbO49ryiqM4Z-548" value="&lt;span style=&quot;font-size: 8px;&quot;&gt;Features&lt;/span&gt;" style="rounded=1;whiteSpace=wrap;html=1;strokeColor=none;fillColor=none;rotation=0;" vertex="1" parent="1">
          <mxGeometry x="407.76" y="738" width="52.24" height="15" as="geometry" />
        </mxCell>
        <mxCell id="PxYYPepECbO49ryiqM4Z-549" value="" style="shape=curlyBracket;whiteSpace=wrap;html=1;rounded=1;labelPosition=left;verticalLabelPosition=middle;align=right;verticalAlign=middle;rotation=90;" vertex="1" parent="1">
          <mxGeometry x="428" y="726" width="13" height="67" as="geometry" />
        </mxCell>
        <mxCell id="PxYYPepECbO49ryiqM4Z-550" value="&lt;div&gt;&lt;font style=&quot;font-size: 8px;&quot;&gt;（Ships x Timesteps）&lt;/font&gt;&lt;/div&gt;" style="rounded=1;whiteSpace=wrap;html=1;strokeColor=none;fillColor=none;rotation=0;" vertex="1" parent="1">
          <mxGeometry x="328.76" y="739" width="88.24" height="25" as="geometry" />
        </mxCell>
        <mxCell id="PxYYPepECbO49ryiqM4Z-554" style="edgeStyle=orthogonalEdgeStyle;rounded=0;orthogonalLoop=1;jettySize=auto;html=1;exitX=0.1;exitY=0.5;exitDx=0;exitDy=0;exitPerimeter=0;entryX=0.5;entryY=0;entryDx=0;entryDy=0;endSize=2;" edge="1" parent="1" source="PxYYPepECbO49ryiqM4Z-551">
          <mxGeometry relative="1" as="geometry">
            <mxPoint x="372.88" y="738" as="targetPoint" />
          </mxGeometry>
        </mxCell>
        <mxCell id="PxYYPepECbO49ryiqM4Z-551" value="" style="shape=curlyBracket;whiteSpace=wrap;html=1;rounded=1;labelPosition=left;verticalLabelPosition=middle;align=right;verticalAlign=middle;rotation=0;" vertex="1" parent="1">
          <mxGeometry x="388" y="677" width="11" height="61" as="geometry" />
        </mxCell>
        <mxCell id="PxYYPepECbO49ryiqM4Z-555" style="edgeStyle=orthogonalEdgeStyle;rounded=0;orthogonalLoop=1;jettySize=auto;html=1;exitX=0.1;exitY=0.5;exitDx=0;exitDy=0;exitPerimeter=0;entryX=0.5;entryY=1;entryDx=0;entryDy=0;endSize=2;" edge="1" parent="1">
          <mxGeometry relative="1" as="geometry">
            <mxPoint x="390.1" y="795.4999999999998" as="sourcePoint" />
            <mxPoint x="372.88" y="765" as="targetPoint" />
          </mxGeometry>
        </mxCell>
        <mxCell id="PxYYPepECbO49ryiqM4Z-552" value="" style="shape=curlyBracket;whiteSpace=wrap;html=1;rounded=1;labelPosition=left;verticalLabelPosition=middle;align=right;verticalAlign=middle;rotation=0;" vertex="1" parent="1">
          <mxGeometry x="389" y="765" width="11" height="61" as="geometry" />
        </mxCell>
        <mxCell id="PxYYPepECbO49ryiqM4Z-556" value="" style="rounded=0;whiteSpace=wrap;html=1;fillColor=none;strokeColor=light-dark(#444444, #ededed);" vertex="1" parent="1">
          <mxGeometry x="400" y="686" width="70" height="14" as="geometry" />
        </mxCell>
        <mxCell id="PxYYPepECbO49ryiqM4Z-557" value="" style="rounded=0;whiteSpace=wrap;html=1;fillColor=none;strokeColor=light-dark(#4D4D4D,#EDEDED);" vertex="1" parent="1">
          <mxGeometry x="400" y="802" width="70" height="14" as="geometry" />
        </mxCell>
        <mxCell id="PxYYPepECbO49ryiqM4Z-558" value="" style="shape=cross;whiteSpace=wrap;html=1;fillColor=#000000;" vertex="1" parent="1">
          <mxGeometry x="496.38" y="745" width="8.620000000000001" height="8" as="geometry" />
        </mxCell>
        <mxCell id="PxYYPepECbO49ryiqM4Z-560" value="" style="endArrow=none;dashed=1;html=1;rounded=0;exitX=1;exitY=0;exitDx=0;exitDy=0;strokeWidth=0.8;strokeColor=light-dark(#606060, #ededed);entryX=-0.286;entryY=-0.124;entryDx=0;entryDy=0;entryPerimeter=0;" edge="1" parent="1" source="PxYYPepECbO49ryiqM4Z-556" target="PxYYPepECbO49ryiqM4Z-343">
          <mxGeometry width="50" height="50" relative="1" as="geometry">
            <mxPoint x="580" y="720" as="sourcePoint" />
            <mxPoint x="490" y="680" as="targetPoint" />
          </mxGeometry>
        </mxCell>
        <mxCell id="PxYYPepECbO49ryiqM4Z-561" value="" style="endArrow=none;dashed=1;html=1;rounded=0;exitX=1;exitY=1;exitDx=0;exitDy=0;strokeWidth=0.8;strokeColor=light-dark(#606060, #ededed);" edge="1" parent="1" source="PxYYPepECbO49ryiqM4Z-556">
          <mxGeometry width="50" height="50" relative="1" as="geometry">
            <mxPoint x="479" y="693" as="sourcePoint" />
            <mxPoint x="490" y="740" as="targetPoint" />
          </mxGeometry>
        </mxCell>
        <mxCell id="PxYYPepECbO49ryiqM4Z-562" value="" style="endArrow=none;dashed=1;html=1;rounded=0;exitX=1;exitY=0;exitDx=0;exitDy=0;strokeWidth=0.8;strokeColor=light-dark(#606060, #ededed);" edge="1" parent="1" source="PxYYPepECbO49ryiqM4Z-557">
          <mxGeometry width="50" height="50" relative="1" as="geometry">
            <mxPoint x="479" y="793" as="sourcePoint" />
            <mxPoint x="490" y="760" as="targetPoint" />
          </mxGeometry>
        </mxCell>
        <mxCell id="PxYYPepECbO49ryiqM4Z-563" value="" style="endArrow=none;dashed=1;html=1;rounded=0;exitX=1;exitY=1;exitDx=0;exitDy=0;strokeWidth=0.8;strokeColor=light-dark(#606060, #ededed);" edge="1" parent="1" source="PxYYPepECbO49ryiqM4Z-557">
          <mxGeometry width="50" height="50" relative="1" as="geometry">
            <mxPoint x="479" y="807" as="sourcePoint" />
            <mxPoint x="490" y="820" as="targetPoint" />
          </mxGeometry>
        </mxCell>
        <mxCell id="PxYYPepECbO49ryiqM4Z-564" value="" style="endArrow=none;dashed=1;html=1;rounded=0;strokeWidth=0.8;strokeColor=light-dark(#606060, #ededed);" edge="1" parent="1">
          <mxGeometry width="50" height="50" relative="1" as="geometry">
            <mxPoint x="510" y="820" as="sourcePoint" />
            <mxPoint x="530" y="780" as="targetPoint" />
          </mxGeometry>
        </mxCell>
        <mxCell id="PxYYPepECbO49ryiqM4Z-565" value="" style="endArrow=none;dashed=1;html=1;rounded=0;strokeWidth=0.8;strokeColor=light-dark(#606060, #ededed);" edge="1" parent="1">
          <mxGeometry width="50" height="50" relative="1" as="geometry">
            <mxPoint x="510" y="680" as="sourcePoint" />
            <mxPoint x="530" y="720" as="targetPoint" />
          </mxGeometry>
        </mxCell>
        <mxCell id="PxYYPepECbO49ryiqM4Z-566" value="" style="endArrow=none;dashed=1;html=1;rounded=0;strokeWidth=0.8;strokeColor=light-dark(#606060, #ededed);entryX=0;entryY=0;entryDx=0;entryDy=0;" edge="1" parent="1" target="PxYYPepECbO49ryiqM4Z-371">
          <mxGeometry width="50" height="50" relative="1" as="geometry">
            <mxPoint x="537" y="723" as="sourcePoint" />
            <mxPoint x="627" y="731" as="targetPoint" />
          </mxGeometry>
        </mxCell>
        <mxCell id="PxYYPepECbO49ryiqM4Z-568" value="&lt;font style=&quot;font-size: 8px;&quot;&gt;AIS Nodes&lt;/font&gt;" style="rounded=1;whiteSpace=wrap;html=1;strokeColor=none;fillColor=none;rotation=-90;" vertex="1" parent="1">
          <mxGeometry x="603" y="761.02" width="47" height="15.98" as="geometry" />
        </mxCell>
        <mxCell id="PxYYPepECbO49ryiqM4Z-569" value="&lt;font style=&quot;font-size: 8px;&quot;&gt;CCTV Nodes&lt;/font&gt;" style="rounded=1;whiteSpace=wrap;html=1;strokeColor=none;fillColor=none;" vertex="1" parent="1">
          <mxGeometry x="560" y="800" width="59.62" height="16.02" as="geometry" />
        </mxCell>
        <mxCell id="PxYYPepECbO49ryiqM4Z-570" value="" style="endArrow=none;dashed=1;html=1;rounded=0;strokeWidth=0.8;strokeColor=light-dark(#606060, #ededed);entryX=0;entryY=1;entryDx=0;entryDy=0;" edge="1" parent="1" target="PxYYPepECbO49ryiqM4Z-371">
          <mxGeometry width="50" height="50" relative="1" as="geometry">
            <mxPoint x="538" y="779" as="sourcePoint" />
            <mxPoint x="643" y="745" as="targetPoint" />
          </mxGeometry>
        </mxCell>
        <mxCell id="PxYYPepECbO49ryiqM4Z-571" value="&lt;font style=&quot;font-size: 9px;&quot;&gt;i-th node&lt;/font&gt;" style="rounded=1;whiteSpace=wrap;html=1;strokeColor=none;fillColor=none;align=left;" vertex="1" parent="1">
          <mxGeometry x="484" y="660.01" width="39" height="15.99" as="geometry" />
        </mxCell>
        <mxCell id="PxYYPepECbO49ryiqM4Z-576" value="&lt;font style=&quot;font-size: 9px;&quot;&gt;j-th node&lt;/font&gt;" style="rounded=1;whiteSpace=wrap;html=1;strokeColor=none;fillColor=none;align=left;" vertex="1" parent="1">
          <mxGeometry x="483" y="817.01" width="39" height="15.99" as="geometry" />
        </mxCell>
        <mxCell id="PxYYPepECbO49ryiqM4Z-577" value="&lt;font style=&quot;font-size: 8px;&quot;&gt;(i&amp;nbsp;, j)&lt;/font&gt;" style="rounded=1;whiteSpace=wrap;html=1;strokeColor=none;fillColor=none;align=left;" vertex="1" parent="1">
          <mxGeometry x="603" y="724.01" width="26" height="15.99" as="geometry" />
        </mxCell>
        <mxCell id="PxYYPepECbO49ryiqM4Z-579" value="" style="endArrow=classic;html=1;rounded=0;endSize=1;exitX=0.321;exitY=0.91;exitDx=0;exitDy=0;exitPerimeter=0;entryX=0.611;entryY=1.222;entryDx=0;entryDy=0;entryPerimeter=0;" edge="1" parent="1" source="PxYYPepECbO49ryiqM4Z-577">
          <mxGeometry width="50" height="50" relative="1" as="geometry">
            <mxPoint x="610.436" y="739.9926300000001" as="sourcePoint" />
            <mxPoint x="605.11" y="752.2199999999999" as="targetPoint" />
          </mxGeometry>
        </mxCell>
        <mxCell id="PxYYPepECbO49ryiqM4Z-580" value="&lt;font style=&quot;font-size: 9px;&quot;&gt;MLP F&lt;/font&gt;&lt;span style=&quot;font-size: 9px;&quot;&gt;usion&lt;/span&gt;" style="rounded=1;whiteSpace=wrap;html=1;strokeColor=none;fillColor=none;" vertex="1" parent="1">
          <mxGeometry x="469.38" y="831.551724137931" width="106.62" height="24" as="geometry" />
        </mxCell>
        <mxCell id="PxYYPepECbO49ryiqM4Z-582" value="&lt;font style=&quot;font-size: 8px;&quot;&gt;Linears&lt;/font&gt;" style="rounded=1;whiteSpace=wrap;html=1;strokeColor=none;fillColor=none;align=left;" vertex="1" parent="1">
          <mxGeometry x="518" y="683" width="29" height="16.02" as="geometry" />
        </mxCell>
        <mxCell id="PxYYPepECbO49ryiqM4Z-583" value="&lt;font style=&quot;font-size: 8px;&quot;&gt;Linears&lt;/font&gt;" style="rounded=1;whiteSpace=wrap;html=1;strokeColor=none;fillColor=none;align=left;" vertex="1" parent="1">
          <mxGeometry x="530" y="781" width="31" height="11.02" as="geometry" />
        </mxCell>
        <mxCell id="PxYYPepECbO49ryiqM4Z-584" value="" style="whiteSpace=wrap;html=1;aspect=fixed;container=0;fillColor=#bac8d3;strokeColor=#23445d;strokeWidth=1;" vertex="1" parent="1">
          <mxGeometry x="670" y="740" width="10" height="10" as="geometry" />
        </mxCell>
        <mxCell id="PxYYPepECbO49ryiqM4Z-585" value="" style="whiteSpace=wrap;html=1;aspect=fixed;container=0;fillColor=none;strokeColor=#666666;fontColor=#333333;strokeWidth=0.5;dashed=1;" vertex="1" parent="1">
          <mxGeometry x="683" y="740" width="10" height="10" as="geometry" />
        </mxCell>
        <mxCell id="PxYYPepECbO49ryiqM4Z-586" value="" style="whiteSpace=wrap;html=1;aspect=fixed;container=0;fillColor=none;strokeColor=#666666;fontColor=#333333;strokeWidth=0.5;dashed=1;" vertex="1" parent="1">
          <mxGeometry x="696" y="740" width="10" height="10" as="geometry" />
        </mxCell>
        <mxCell id="PxYYPepECbO49ryiqM4Z-587" value="" style="whiteSpace=wrap;html=1;aspect=fixed;container=0;fillColor=none;strokeColor=#666666;fontColor=#333333;strokeWidth=0.5;dashed=1;" vertex="1" parent="1">
          <mxGeometry x="709" y="740" width="10" height="10" as="geometry" />
        </mxCell>
        <mxCell id="PxYYPepECbO49ryiqM4Z-588" value="" style="whiteSpace=wrap;html=1;aspect=fixed;container=0;fillColor=none;strokeColor=#666666;fontColor=#333333;strokeWidth=0.5;dashed=1;" vertex="1" parent="1">
          <mxGeometry x="722" y="740" width="10" height="10" as="geometry" />
        </mxCell>
        <mxCell id="PxYYPepECbO49ryiqM4Z-589" value="" style="whiteSpace=wrap;html=1;aspect=fixed;container=0;fillColor=none;strokeColor=#666666;fontColor=#333333;strokeWidth=0.5;dashed=1;" vertex="1" parent="1">
          <mxGeometry x="670" y="753" width="10" height="10" as="geometry" />
        </mxCell>
        <mxCell id="PxYYPepECbO49ryiqM4Z-590" value="" style="whiteSpace=wrap;html=1;aspect=fixed;container=0;fillColor=none;strokeColor=#666666;fontColor=#333333;strokeWidth=0.5;dashed=1;" vertex="1" parent="1">
          <mxGeometry x="683" y="753" width="10" height="10" as="geometry" />
        </mxCell>
        <mxCell id="PxYYPepECbO49ryiqM4Z-591" value="" style="whiteSpace=wrap;html=1;aspect=fixed;container=0;fillColor=none;strokeColor=#666666;fontColor=#333333;strokeWidth=0.5;dashed=1;" vertex="1" parent="1">
          <mxGeometry x="696" y="753" width="10" height="10" as="geometry" />
        </mxCell>
        <mxCell id="PxYYPepECbO49ryiqM4Z-592" value="" style="whiteSpace=wrap;html=1;aspect=fixed;container=0;fillColor=#bac8d3;strokeColor=#23445d;strokeWidth=1;" vertex="1" parent="1">
          <mxGeometry x="709" y="753" width="10" height="10" as="geometry" />
        </mxCell>
        <mxCell id="PxYYPepECbO49ryiqM4Z-593" value="" style="whiteSpace=wrap;html=1;aspect=fixed;container=0;fillColor=none;strokeColor=#666666;fontColor=#333333;strokeWidth=0.5;dashed=1;" vertex="1" parent="1">
          <mxGeometry x="722" y="753" width="10" height="10" as="geometry" />
        </mxCell>
        <mxCell id="PxYYPepECbO49ryiqM4Z-594" value="" style="whiteSpace=wrap;html=1;aspect=fixed;container=0;fillColor=none;strokeColor=#666666;fontColor=#333333;strokeWidth=0.5;dashed=1;" vertex="1" parent="1">
          <mxGeometry x="670" y="766" width="10" height="10" as="geometry" />
        </mxCell>
        <mxCell id="PxYYPepECbO49ryiqM4Z-595" value="" style="whiteSpace=wrap;html=1;aspect=fixed;container=0;fillColor=none;strokeColor=#23445d;strokeWidth=0.5;dashed=1;" vertex="1" parent="1">
          <mxGeometry x="683" y="766" width="10" height="10" as="geometry" />
        </mxCell>
        <mxCell id="PxYYPepECbO49ryiqM4Z-596" value="" style="whiteSpace=wrap;html=1;aspect=fixed;container=0;fillColor=none;strokeColor=#666666;fontColor=#333333;strokeWidth=0.5;dashed=1;" vertex="1" parent="1">
          <mxGeometry x="696" y="766" width="10" height="10" as="geometry" />
        </mxCell>
        <mxCell id="PxYYPepECbO49ryiqM4Z-597" value="" style="whiteSpace=wrap;html=1;aspect=fixed;container=0;fillColor=none;strokeColor=#666666;fontColor=#333333;strokeWidth=0.5;dashed=1;" vertex="1" parent="1">
          <mxGeometry x="709" y="766" width="10" height="10" as="geometry" />
        </mxCell>
        <mxCell id="PxYYPepECbO49ryiqM4Z-598" value="" style="whiteSpace=wrap;html=1;aspect=fixed;container=0;fillColor=#bac8d3;strokeColor=#23445d;strokeWidth=1;" vertex="1" parent="1">
          <mxGeometry x="722" y="766" width="10" height="10" as="geometry" />
        </mxCell>
        <mxCell id="PxYYPepECbO49ryiqM4Z-599" value="" style="whiteSpace=wrap;html=1;aspect=fixed;container=0;fillColor=none;strokeColor=#666666;fontColor=#333333;strokeWidth=0.5;dashed=1;" vertex="1" parent="1">
          <mxGeometry x="670" y="779" width="10" height="10" as="geometry" />
        </mxCell>
        <mxCell id="PxYYPepECbO49ryiqM4Z-600" value="" style="whiteSpace=wrap;html=1;aspect=fixed;container=0;fillColor=none;strokeColor=#666666;fontColor=#333333;strokeWidth=0.5;dashed=1;" vertex="1" parent="1">
          <mxGeometry x="683" y="779" width="10" height="10" as="geometry" />
        </mxCell>
        <mxCell id="PxYYPepECbO49ryiqM4Z-601" value="" style="whiteSpace=wrap;html=1;aspect=fixed;container=0;fillColor=#bac8d3;strokeColor=#23445d;strokeWidth=1;" vertex="1" parent="1">
          <mxGeometry x="696" y="779" width="10" height="10" as="geometry" />
        </mxCell>
        <mxCell id="PxYYPepECbO49ryiqM4Z-602" value="" style="whiteSpace=wrap;html=1;aspect=fixed;container=0;fillColor=none;strokeColor=#666666;fontColor=#333333;strokeWidth=0.5;dashed=1;" vertex="1" parent="1">
          <mxGeometry x="709" y="779" width="10" height="10" as="geometry" />
        </mxCell>
        <mxCell id="PxYYPepECbO49ryiqM4Z-603" value="" style="whiteSpace=wrap;html=1;aspect=fixed;container=0;fillColor=none;strokeColor=#23445d;strokeWidth=0.5;dashed=1;" vertex="1" parent="1">
          <mxGeometry x="722" y="779" width="10" height="10" as="geometry" />
        </mxCell>
        <mxCell id="PxYYPepECbO49ryiqM4Z-604" value="" style="whiteSpace=wrap;html=1;aspect=fixed;container=0;fillColor=none;strokeColor=#666666;fontColor=#333333;strokeWidth=0.5;dashed=1;" vertex="1" parent="1">
          <mxGeometry x="670" y="792" width="10" height="10" as="geometry" />
        </mxCell>
        <mxCell id="PxYYPepECbO49ryiqM4Z-605" value="" style="whiteSpace=wrap;html=1;aspect=fixed;container=0;fillColor=#bac8d3;strokeColor=#23445d;strokeWidth=1;" vertex="1" parent="1">
          <mxGeometry x="683" y="792" width="10" height="10" as="geometry" />
        </mxCell>
        <mxCell id="PxYYPepECbO49ryiqM4Z-606" value="" style="whiteSpace=wrap;html=1;aspect=fixed;container=0;fillColor=none;strokeColor=#23445d;strokeWidth=0.5;dashed=1;" vertex="1" parent="1">
          <mxGeometry x="696" y="792" width="10" height="10" as="geometry" />
        </mxCell>
        <mxCell id="PxYYPepECbO49ryiqM4Z-607" value="" style="whiteSpace=wrap;html=1;aspect=fixed;container=0;fillColor=none;strokeColor=#666666;fontColor=#333333;strokeWidth=0.5;dashed=1;" vertex="1" parent="1">
          <mxGeometry x="709" y="792" width="10" height="10" as="geometry" />
        </mxCell>
        <mxCell id="PxYYPepECbO49ryiqM4Z-608" value="" style="whiteSpace=wrap;html=1;aspect=fixed;container=0;fillColor=none;strokeColor=#666666;fontColor=#333333;strokeWidth=0.5;dashed=1;" vertex="1" parent="1">
          <mxGeometry x="722" y="792" width="10" height="10" as="geometry" />
        </mxCell>
        <mxCell id="PxYYPepECbO49ryiqM4Z-609" value="&lt;font style=&quot;font-size: 8px;&quot;&gt;AIS Nodes&lt;/font&gt;" style="rounded=1;whiteSpace=wrap;html=1;strokeColor=none;fillColor=none;rotation=-90;" vertex="1" parent="1">
          <mxGeometry x="716" y="761.02" width="47" height="15.98" as="geometry" />
        </mxCell>
        <mxCell id="PxYYPepECbO49ryiqM4Z-610" value="&lt;font style=&quot;font-size: 8px;&quot;&gt;CCTV Nodes&lt;/font&gt;" style="rounded=1;whiteSpace=wrap;html=1;strokeColor=none;fillColor=none;" vertex="1" parent="1">
          <mxGeometry x="673" y="800" width="59.62" height="16.02" as="geometry" />
        </mxCell>
        <mxCell id="PxYYPepECbO49ryiqM4Z-613" value="" style="endArrow=classic;html=1;rounded=0;endSize=4;" edge="1" parent="1">
          <mxGeometry width="50" height="50" relative="1" as="geometry">
            <mxPoint x="642" y="773" as="sourcePoint" />
            <mxPoint x="662" y="773" as="targetPoint" />
          </mxGeometry>
        </mxCell>
        <mxCell id="PxYYPepECbO49ryiqM4Z-614" value="&lt;font style=&quot;font-size: 9px;&quot;&gt;Similarity Matrix&lt;/font&gt;" style="rounded=1;whiteSpace=wrap;html=1;strokeColor=none;fillColor=none;" vertex="1" parent="1">
          <mxGeometry x="564.38" y="831.551724137931" width="67.62" height="24" as="geometry" />
        </mxCell>
        <mxCell id="PxYYPepECbO49ryiqM4Z-615" value="&lt;span style=&quot;font-size: 9px;&quot;&gt;Matched Nodes&lt;/span&gt;" style="rounded=1;whiteSpace=wrap;html=1;strokeColor=none;fillColor=none;" vertex="1" parent="1">
          <mxGeometry x="669.38" y="831.551724137931" width="67.62" height="24" as="geometry" />
        </mxCell>
        <mxCell id="PxYYPepECbO49ryiqM4Z-616" value="&lt;font style=&quot;font-size: 8px;&quot;&gt;Algorithm&lt;/font&gt;" style="rounded=1;whiteSpace=wrap;html=1;strokeColor=none;fillColor=none;" vertex="1" parent="1">
          <mxGeometry x="612" y="807" width="67.62" height="24" as="geometry" />
        </mxCell>
        <mxCell id="PxYYPepECbO49ryiqM4Z-617" value="&lt;font style=&quot;font-size: 8px;&quot;&gt;Hungarian&lt;/font&gt;" style="rounded=1;whiteSpace=wrap;html=1;strokeColor=none;fillColor=none;" vertex="1" parent="1">
          <mxGeometry x="612.62" y="796" width="67.62" height="24" as="geometry" />
        </mxCell>
        <mxCell id="PxYYPepECbO49ryiqM4Z-665" value="" style="group" vertex="1" connectable="0" parent="1">
          <mxGeometry x="560" y="678" width="30" height="27" as="geometry" />
        </mxCell>
        <mxCell id="PxYYPepECbO49ryiqM4Z-628" value="" style="whiteSpace=wrap;html=1;aspect=fixed;container=0;fillColor=#fff2cc;strokeWidth=0.5;dashed=1;strokeColor=#d6b656;" vertex="1" parent="PxYYPepECbO49ryiqM4Z-665">
          <mxGeometry width="7.345588235294114" height="7.345588235294114" as="geometry" />
        </mxCell>
        <mxCell id="PxYYPepECbO49ryiqM4Z-629" value="" style="whiteSpace=wrap;html=1;aspect=fixed;container=0;fillColor=#fff2cc;strokeWidth=1;strokeColor=#d6b656;" vertex="1" parent="PxYYPepECbO49ryiqM4Z-665">
          <mxGeometry x="10.659898477157352" width="7.345588235294114" height="7.345588235294114" as="geometry" />
        </mxCell>
        <mxCell id="PxYYPepECbO49ryiqM4Z-630" value="" style="whiteSpace=wrap;html=1;aspect=fixed;container=0;fillColor=#fff2cc;strokeWidth=0.5;dashed=1;strokeColor=#d6b656;" vertex="1" parent="PxYYPepECbO49ryiqM4Z-665">
          <mxGeometry x="21.319796954314704" width="7.345588235294114" height="7.345588235294114" as="geometry" />
        </mxCell>
        <mxCell id="PxYYPepECbO49ryiqM4Z-632" value="" style="whiteSpace=wrap;html=1;aspect=fixed;container=0;fillColor=#fff2cc;strokeWidth=1;strokeColor=#d6b656;" vertex="1" parent="PxYYPepECbO49ryiqM4Z-665">
          <mxGeometry y="10.191176470588298" width="7.345588235294114" height="7.345588235294114" as="geometry" />
        </mxCell>
        <mxCell id="PxYYPepECbO49ryiqM4Z-633" value="" style="whiteSpace=wrap;html=1;aspect=fixed;container=0;fillColor=#fff2cc;strokeWidth=0.5;dashed=1;strokeColor=#d6b656;" vertex="1" parent="PxYYPepECbO49ryiqM4Z-665">
          <mxGeometry x="10.659898477157352" y="10.191176470588298" width="7.345588235294114" height="7.345588235294114" as="geometry" />
        </mxCell>
        <mxCell id="PxYYPepECbO49ryiqM4Z-634" value="" style="whiteSpace=wrap;html=1;aspect=fixed;container=0;fillColor=#fff2cc;strokeWidth=0.5;dashed=1;strokeColor=#d6b656;" vertex="1" parent="PxYYPepECbO49ryiqM4Z-665">
          <mxGeometry x="21.319796954314704" y="10.191176470588298" width="7.345588235294114" height="7.345588235294114" as="geometry" />
        </mxCell>
        <mxCell id="PxYYPepECbO49ryiqM4Z-636" value="" style="whiteSpace=wrap;html=1;aspect=fixed;container=0;fillColor=#fff2cc;strokeWidth=0.5;dashed=1;strokeColor=#d6b656;" vertex="1" parent="PxYYPepECbO49ryiqM4Z-665">
          <mxGeometry y="19.654411764705884" width="7.345588235294114" height="7.345588235294114" as="geometry" />
        </mxCell>
        <mxCell id="PxYYPepECbO49ryiqM4Z-637" value="" style="whiteSpace=wrap;html=1;aspect=fixed;container=0;fillColor=#fff2cc;strokeWidth=0.5;dashed=1;strokeColor=#d6b656;" vertex="1" parent="PxYYPepECbO49ryiqM4Z-665">
          <mxGeometry x="10.659898477157352" y="19.654411764705884" width="7.345588235294114" height="7.345588235294114" as="geometry" />
        </mxCell>
        <mxCell id="PxYYPepECbO49ryiqM4Z-638" value="" style="whiteSpace=wrap;html=1;aspect=fixed;container=0;fillColor=#fff2cc;strokeWidth=1;strokeColor=#d6b656;" vertex="1" parent="PxYYPepECbO49ryiqM4Z-665">
          <mxGeometry x="21.319796954314704" y="19.654411764705884" width="7.345588235294114" height="7.345588235294114" as="geometry" />
        </mxCell>
        <mxCell id="PxYYPepECbO49ryiqM4Z-666" value="" style="endArrow=classic;html=1;rounded=0;endSize=2;" edge="1" parent="1">
          <mxGeometry width="50" height="50" relative="1" as="geometry">
            <mxPoint x="569" y="712" as="sourcePoint" />
            <mxPoint x="569" y="734" as="targetPoint" />
          </mxGeometry>
        </mxCell>
        <mxCell id="PxYYPepECbO49ryiqM4Z-667" value="" style="endArrow=classic;html=1;rounded=0;endSize=2;entryX=1;entryY=0.75;entryDx=0;entryDy=0;" edge="1" parent="1">
          <mxGeometry width="50" height="50" relative="1" as="geometry">
            <mxPoint x="577" y="733" as="sourcePoint" />
            <mxPoint x="577" y="710.1636029411764" as="targetPoint" />
          </mxGeometry>
        </mxCell>
        <mxCell id="PxYYPepECbO49ryiqM4Z-668" value="&lt;span style=&quot;white-space: pre-wrap; caret-color: rgba(0, 0, 0, 0.87); color: rgba(0, 0, 0, 0.87); font-family: &amp;quot;Helvetica Neue&amp;quot;, &amp;quot;Segoe UI&amp;quot;, Helvetica, Arial, sans-serif;&quot;&gt;&lt;font style=&quot;font-size: 8px;&quot;&gt;Training&lt;/font&gt;&lt;/span&gt;" style="rounded=1;whiteSpace=wrap;html=1;strokeColor=none;fillColor=none;align=left;" vertex="1" parent="1">
          <mxGeometry x="581" y="714.01" width="31" height="13.99" as="geometry" />
        </mxCell>
        <mxCell id="PxYYPepECbO49ryiqM4Z-671" value="&lt;font style=&quot;font-size: 9px;&quot;&gt;STA-Block&lt;/font&gt;" style="rounded=1;whiteSpace=wrap;html=1;fillColor=#d5e8d4;strokeColor=light-dark(#38571a, #446e2c);rotation=-90;" vertex="1" parent="1">
          <mxGeometry x="307.5" y="696.5" width="63" height="17" as="geometry" />
        </mxCell>
        <mxCell id="PxYYPepECbO49ryiqM4Z-672" value="&lt;font style=&quot;font-size: 9px;&quot;&gt;STA-Block&lt;/font&gt;" style="rounded=1;whiteSpace=wrap;html=1;fillColor=#d5e8d4;strokeColor=light-dark(#38571a, #446e2c);rotation=-90;" vertex="1" parent="1">
          <mxGeometry x="306.5" y="786.5" width="63" height="17" as="geometry" />
        </mxCell>
        <mxCell id="PxYYPepECbO49ryiqM4Z-673" value="&lt;font style=&quot;font-size: 9px;&quot;&gt;AIS Data&lt;/font&gt;" style="rounded=1;whiteSpace=wrap;html=1;strokeColor=none;fillColor=none;align=left;" vertex="1" parent="1">
          <mxGeometry x="243.38" y="649.02" width="39.62" height="24" as="geometry" />
        </mxCell>
        <mxCell id="PxYYPepECbO49ryiqM4Z-674" value="&lt;font style=&quot;font-size: 9px;&quot;&gt;CCTV Data&lt;/font&gt;" style="rounded=1;whiteSpace=wrap;html=1;strokeColor=none;fillColor=none;align=left;" vertex="1" parent="1">
          <mxGeometry x="243.38" y="741.02" width="55.62" height="24" as="geometry" />
        </mxCell>
        <mxCell id="PxYYPepECbO49ryiqM4Z-680" value="&lt;span style=&quot;white-space: pre-wrap; caret-color: rgba(0, 0, 0, 0.87); font-family: &amp;quot;Helvetica Neue&amp;quot;, &amp;quot;Segoe UI&amp;quot;, Helvetica, Arial, sans-serif; color: light-dark(rgb(210, 157, 0), rgb(237, 237, 237));&quot;&gt;&lt;font style=&quot;font-size: 8px;&quot;&gt;&lt;b&gt;Position, Speed,&amp;nbsp;&lt;/b&gt;&lt;/font&gt;&lt;/span&gt;&lt;div&gt;&lt;span style=&quot;white-space: pre-wrap; caret-color: rgba(0, 0, 0, 0.87); font-family: &amp;quot;Helvetica Neue&amp;quot;, &amp;quot;Segoe UI&amp;quot;, Helvetica, Arial, sans-serif; color: light-dark(rgb(210, 157, 0), rgb(237, 237, 237));&quot;&gt;&lt;font style=&quot;font-size: 8px;&quot;&gt;&lt;b&gt;Heading&lt;/b&gt;&lt;/font&gt;&lt;/span&gt;&lt;/div&gt;" style="rounded=1;whiteSpace=wrap;html=1;strokeColor=none;fillColor=none;align=left;" vertex="1" parent="1">
          <mxGeometry x="652" y="688.01" width="68" height="18.99" as="geometry" />
        </mxCell>
        <mxCell id="PxYYPepECbO49ryiqM4Z-681" style="edgeStyle=none;rounded=1;orthogonalLoop=1;jettySize=auto;html=1;fillColor=#f8cecc;strokeColor=#b85450;curved=0;endArrow=none;startFill=0;exitX=0.5;exitY=0.5;exitDx=0;exitDy=0;exitPerimeter=0;strokeWidth=0.5;" edge="1" parent="1" source="PxYYPepECbO49ryiqM4Z-691" target="PxYYPepECbO49ryiqM4Z-690">
          <mxGeometry relative="1" as="geometry">
            <mxPoint x="287.7510802338388" y="796.0344827586207" as="sourcePoint" />
            <mxPoint x="287.2427348979073" y="796.7241379310344" as="targetPoint" />
          </mxGeometry>
        </mxCell>
        <mxCell id="PxYYPepECbO49ryiqM4Z-682" style="edgeStyle=none;rounded=1;orthogonalLoop=1;jettySize=auto;html=1;fillColor=#ffe6cc;strokeColor=#d79b00;curved=0;endArrow=none;startFill=0;strokeWidth=0.5;" edge="1" parent="1" source="PxYYPepECbO49ryiqM4Z-683" target="PxYYPepECbO49ryiqM4Z-684">
          <mxGeometry relative="1" as="geometry" />
        </mxCell>
        <mxCell id="PxYYPepECbO49ryiqM4Z-683" value="" style="ellipse;whiteSpace=wrap;html=1;aspect=fixed;fillColor=#ffe6cc;strokeColor=#d79b00;strokeWidth=0.5;" vertex="1" parent="1">
          <mxGeometry x="291.6483944759807" y="763.1034482758621" width="3" height="3" as="geometry" />
        </mxCell>
        <mxCell id="PxYYPepECbO49ryiqM4Z-684" value="" style="ellipse;whiteSpace=wrap;html=1;aspect=fixed;fillColor=#ffe6cc;strokeColor=#d79b00;strokeWidth=0.5;" vertex="1" parent="1">
          <mxGeometry x="285.9718715580785" y="771.551724137931" width="3" height="3" as="geometry" />
        </mxCell>
        <mxCell id="PxYYPepECbO49ryiqM4Z-685" value="" style="ellipse;whiteSpace=wrap;html=1;aspect=fixed;fillColor=#ffe6cc;strokeColor=#d79b00;strokeWidth=0.5;" vertex="1" parent="1">
          <mxGeometry x="280.888418198763" y="778.448275862069" width="3" height="3" as="geometry" />
        </mxCell>
        <mxCell id="PxYYPepECbO49ryiqM4Z-686" value="" style="ellipse;whiteSpace=wrap;html=1;aspect=fixed;fillColor=#ffe6cc;strokeColor=#d79b00;strokeWidth=0.5;" vertex="1" parent="1">
          <mxGeometry x="276.48275862068965" y="784.3103448275862" width="3" height="3" as="geometry" />
        </mxCell>
        <mxCell id="PxYYPepECbO49ryiqM4Z-687" value="" style="ellipse;whiteSpace=wrap;html=1;aspect=fixed;fillColor=#ffe6cc;strokeColor=#d79b00;strokeWidth=0.5;" vertex="1" parent="1">
          <mxGeometry x="272.7548928238583" y="790.3448275862069" width="3" height="3" as="geometry" />
        </mxCell>
        <mxCell id="PxYYPepECbO49ryiqM4Z-688" value="" style="ellipse;whiteSpace=wrap;html=1;aspect=fixed;fillColor=#ffe6cc;strokeColor=#d79b00;strokeWidth=0.5;" vertex="1" parent="1">
          <mxGeometry x="270.9756841480979" y="796.6379310344828" width="3" height="3" as="geometry" />
        </mxCell>
        <mxCell id="PxYYPepECbO49ryiqM4Z-689" value="" style="ellipse;whiteSpace=wrap;html=1;aspect=fixed;fillColor=#f8cecc;strokeColor=#b85450;strokeWidth=0.5;" vertex="1" parent="1">
          <mxGeometry x="291.0553249173939" y="782.4137931034483" width="3" height="3" as="geometry" />
        </mxCell>
        <mxCell id="PxYYPepECbO49ryiqM4Z-690" value="" style="ellipse;whiteSpace=wrap;html=1;aspect=fixed;fillColor=#f8cecc;strokeColor=#b85450;strokeWidth=0.5;" vertex="1" parent="1">
          <mxGeometry x="280.7189697534525" y="797.2413793103449" width="3" height="3" as="geometry" />
        </mxCell>
        <mxCell id="PxYYPepECbO49ryiqM4Z-691" value="" style="ellipse;whiteSpace=wrap;html=1;aspect=fixed;fillColor=#f8cecc;strokeColor=#b85450;strokeWidth=0.5;" vertex="1" parent="1">
          <mxGeometry x="283.4301448784207" y="794.6551724137931" width="3" height="3" as="geometry" />
        </mxCell>
        <mxCell id="PxYYPepECbO49ryiqM4Z-692" value="" style="ellipse;whiteSpace=wrap;html=1;aspect=fixed;fillColor=#e1d5e7;strokeColor=#9673a6;strokeWidth=0.5;" vertex="1" parent="1">
          <mxGeometry x="301.0527831907142" y="796.8965517241379" width="3" height="3" as="geometry" />
        </mxCell>
        <mxCell id="PxYYPepECbO49ryiqM4Z-693" value="" style="ellipse;whiteSpace=wrap;html=1;aspect=fixed;fillColor=#e1d5e7;strokeColor=#9673a6;strokeWidth=0.5;" vertex="1" parent="1">
          <mxGeometry x="306.13623655002965" y="788.9655172413793" width="3" height="3" as="geometry" />
        </mxCell>
        <mxCell id="PxYYPepECbO49ryiqM4Z-694" value="" style="ellipse;whiteSpace=wrap;html=1;aspect=fixed;fillColor=#e1d5e7;strokeColor=#9673a6;strokeWidth=0.5;" vertex="1" parent="1">
          <mxGeometry x="297.83326272981446" y="800.1724137931035" width="3" height="3" as="geometry" />
        </mxCell>
        <mxCell id="PxYYPepECbO49ryiqM4Z-695" value="" style="ellipse;whiteSpace=wrap;html=1;aspect=fixed;fillColor=#e1d5e7;strokeColor=#9673a6;strokeWidth=0.5;" vertex="1" parent="1">
          <mxGeometry x="294.1053969329831" y="804.1379310344828" width="3" height="3" as="geometry" />
        </mxCell>
        <mxCell id="PxYYPepECbO49ryiqM4Z-696" value="" style="ellipse;whiteSpace=wrap;html=1;aspect=fixed;fillColor=#e1d5e7;strokeColor=#9673a6;strokeWidth=0.5;" vertex="1" parent="1">
          <mxGeometry x="290.37753113615184" y="807.0689655172414" width="3" height="3" as="geometry" />
        </mxCell>
        <mxCell id="PxYYPepECbO49ryiqM4Z-697" value="" style="ellipse;whiteSpace=wrap;html=1;aspect=fixed;fillColor=#d5e8d4;strokeColor=#82b366;strokeWidth=0.5;" vertex="1" parent="1">
          <mxGeometry x="278.1772430737948" y="810.2758620689656" width="3" height="3" as="geometry" />
        </mxCell>
        <mxCell id="PxYYPepECbO49ryiqM4Z-698" value="" style="ellipse;whiteSpace=wrap;html=1;aspect=fixed;fillColor=#d5e8d4;strokeColor=#82b366;strokeWidth=0.5;" vertex="1" parent="1">
          <mxGeometry x="275.12717105820553" y="814.3793103448276" width="3" height="3" as="geometry" />
        </mxCell>
        <mxCell id="PxYYPepECbO49ryiqM4Z-699" value="" style="ellipse;whiteSpace=wrap;html=1;aspect=fixed;fillColor=#d5e8d4;strokeColor=#82b366;strokeWidth=0.5;" vertex="1" parent="1">
          <mxGeometry x="271.56875370668473" y="817.8275862068965" width="3" height="3" as="geometry" />
        </mxCell>
        <mxCell id="PxYYPepECbO49ryiqM4Z-700" value="" style="ellipse;whiteSpace=wrap;html=1;aspect=fixed;fillColor=#d5e8d4;strokeColor=#82b366;strokeWidth=0.5;" vertex="1" parent="1">
          <mxGeometry x="268.17978480047447" y="819.551724137931" width="3" height="3" as="geometry" />
        </mxCell>
        <mxCell id="PxYYPepECbO49ryiqM4Z-701" value="" style="ellipse;whiteSpace=wrap;html=1;aspect=fixed;fillColor=#d5e8d4;strokeColor=#82b366;strokeWidth=0.5;" vertex="1" parent="1">
          <mxGeometry x="264.1130221130221" y="821.1034482758621" width="3" height="3" as="geometry" />
        </mxCell>
        <mxCell id="PxYYPepECbO49ryiqM4Z-702" style="edgeStyle=none;rounded=1;orthogonalLoop=1;jettySize=auto;html=1;exitX=0;exitY=1;exitDx=0;exitDy=0;fillColor=#ffe6cc;strokeColor=#d79b00;curved=0;endArrow=none;startFill=0;entryX=1;entryY=0;entryDx=0;entryDy=0;strokeWidth=0.5;" edge="1" parent="1" target="PxYYPepECbO49ryiqM4Z-685">
          <mxGeometry relative="1" as="geometry">
            <mxPoint x="286.51354725766345" y="773.7591898032584" as="sourcePoint" />
            <mxPoint x="283.22736606945676" y="778.8270170932933" as="targetPoint" />
          </mxGeometry>
        </mxCell>
        <mxCell id="PxYYPepECbO49ryiqM4Z-703" style="edgeStyle=none;rounded=1;orthogonalLoop=1;jettySize=auto;html=1;fillColor=#ffe6cc;strokeColor=#d79b00;curved=0;endArrow=none;startFill=0;strokeWidth=0.5;" edge="1" parent="1" source="PxYYPepECbO49ryiqM4Z-685" target="PxYYPepECbO49ryiqM4Z-686">
          <mxGeometry relative="1" as="geometry">
            <mxPoint x="288.20803171076864" y="775.6557415273963" as="sourcePoint" />
            <mxPoint x="284.6154367533679" y="780.5258620689655" as="targetPoint" />
          </mxGeometry>
        </mxCell>
        <mxCell id="PxYYPepECbO49ryiqM4Z-704" style="edgeStyle=none;rounded=1;orthogonalLoop=1;jettySize=auto;html=1;fillColor=#ffe6cc;strokeColor=#d79b00;curved=0;endArrow=none;startFill=0;strokeWidth=0.5;" edge="1" parent="1" source="PxYYPepECbO49ryiqM4Z-686" target="PxYYPepECbO49ryiqM4Z-687">
          <mxGeometry relative="1" as="geometry">
            <mxPoint x="283.00652376514444" y="782.4137931034483" as="sourcePoint" />
            <mxPoint x="280.29534864017626" y="786.3793103448276" as="targetPoint" />
          </mxGeometry>
        </mxCell>
        <mxCell id="PxYYPepECbO49ryiqM4Z-705" style="edgeStyle=none;rounded=1;orthogonalLoop=1;jettySize=auto;html=1;fillColor=#ffe6cc;strokeColor=#d79b00;curved=0;endArrow=none;startFill=0;strokeWidth=0.5;" edge="1" parent="1" source="PxYYPepECbO49ryiqM4Z-687" target="PxYYPepECbO49ryiqM4Z-688">
          <mxGeometry relative="1" as="geometry">
            <mxPoint x="278.7703126323816" y="788.448275862069" as="sourcePoint" />
            <mxPoint x="276.3980343980344" y="792.2413793103449" as="targetPoint" />
          </mxGeometry>
        </mxCell>
        <mxCell id="PxYYPepECbO49ryiqM4Z-706" style="edgeStyle=none;rounded=1;orthogonalLoop=1;jettySize=auto;html=1;fillColor=#f8cecc;strokeColor=#b85450;curved=0;endArrow=none;startFill=0;strokeWidth=0.5;" edge="1" parent="1" source="PxYYPepECbO49ryiqM4Z-689" target="PxYYPepECbO49ryiqM4Z-751">
          <mxGeometry relative="1" as="geometry">
            <mxPoint x="288.20803171076864" y="775.4833277342929" as="sourcePoint" />
            <mxPoint x="284.7010082182496" y="780.5172413793103" as="targetPoint" />
          </mxGeometry>
        </mxCell>
        <mxCell id="PxYYPepECbO49ryiqM4Z-707" style="edgeStyle=none;rounded=1;orthogonalLoop=1;jettySize=auto;html=1;fillColor=#f8cecc;strokeColor=#b85450;curved=0;endArrow=none;startFill=0;strokeWidth=0.5;" edge="1" parent="1" source="PxYYPepECbO49ryiqM4Z-751" target="PxYYPepECbO49ryiqM4Z-752">
          <mxGeometry relative="1" as="geometry">
            <mxPoint x="293.3428789290858" y="786.551724137931" as="sourcePoint" />
            <mxPoint x="291.9872913666017" y="789.3103448275862" as="targetPoint" />
          </mxGeometry>
        </mxCell>
        <mxCell id="PxYYPepECbO49ryiqM4Z-708" style="edgeStyle=none;rounded=1;orthogonalLoop=1;jettySize=auto;html=1;fillColor=#f8cecc;strokeColor=#b85450;curved=0;endArrow=none;startFill=0;strokeWidth=0.5;" edge="1" parent="1" source="PxYYPepECbO49ryiqM4Z-752" target="PxYYPepECbO49ryiqM4Z-691">
          <mxGeometry relative="1" as="geometry">
            <mxPoint x="290.6317038041176" y="791.551724137931" as="sourcePoint" />
            <mxPoint x="289.2761162416335" y="793.9655172413793" as="targetPoint" />
          </mxGeometry>
        </mxCell>
        <mxCell id="PxYYPepECbO49ryiqM4Z-709" style="edgeStyle=none;rounded=1;orthogonalLoop=1;jettySize=auto;html=1;fillColor=#f8cecc;strokeColor=#b85450;curved=0;endArrow=none;startFill=0;strokeWidth=0.5;" edge="1" parent="1" source="PxYYPepECbO49ryiqM4Z-690" target="PxYYPepECbO49ryiqM4Z-740">
          <mxGeometry relative="1" as="geometry">
            <mxPoint x="286.39549267135476" y="797.7586206896551" as="sourcePoint" />
            <mxPoint x="284.7010082182496" y="799.3103448275862" as="targetPoint" />
          </mxGeometry>
        </mxCell>
        <mxCell id="PxYYPepECbO49ryiqM4Z-710" style="edgeStyle=none;rounded=1;orthogonalLoop=1;jettySize=auto;html=1;fillColor=#e1d5e7;strokeColor=#9673a6;curved=0;endArrow=none;startFill=0;strokeWidth=0.5;" edge="1" parent="1" source="PxYYPepECbO49ryiqM4Z-695" target="PxYYPepECbO49ryiqM4Z-696">
          <mxGeometry relative="1" as="geometry">
            <mxPoint x="294.1053969329831" y="805.8620689655172" as="sourcePoint" />
            <mxPoint x="293.4276031517411" y="807.2413793103449" as="targetPoint" />
          </mxGeometry>
        </mxCell>
        <mxCell id="PxYYPepECbO49ryiqM4Z-711" style="edgeStyle=none;rounded=1;orthogonalLoop=1;jettySize=auto;html=1;fillColor=#e1d5e7;strokeColor=#9673a6;curved=0;endArrow=none;startFill=0;strokeWidth=0.5;" edge="1" parent="1" source="PxYYPepECbO49ryiqM4Z-694" target="PxYYPepECbO49ryiqM4Z-695">
          <mxGeometry relative="1" as="geometry">
            <mxPoint x="296.05405405405406" y="807.9310344827586" as="sourcePoint" />
            <mxPoint x="294.35956960094893" y="809.3103448275862" as="targetPoint" />
          </mxGeometry>
        </mxCell>
        <mxCell id="PxYYPepECbO49ryiqM4Z-712" style="edgeStyle=none;rounded=1;orthogonalLoop=1;jettySize=auto;html=1;fillColor=#e1d5e7;strokeColor=#9673a6;curved=0;endArrow=none;startFill=0;strokeWidth=0.5;" edge="1" parent="1" source="PxYYPepECbO49ryiqM4Z-694" target="PxYYPepECbO49ryiqM4Z-692">
          <mxGeometry relative="1" as="geometry">
            <mxPoint x="299.9513682961959" y="804.1379310344828" as="sourcePoint" />
            <mxPoint x="297.91798695246973" y="806.2068965517242" as="targetPoint" />
          </mxGeometry>
        </mxCell>
        <mxCell id="PxYYPepECbO49ryiqM4Z-713" style="edgeStyle=none;rounded=1;orthogonalLoop=1;jettySize=auto;html=1;fillColor=#e1d5e7;strokeColor=#9673a6;curved=0;endArrow=none;startFill=0;strokeWidth=0.5;" edge="1" parent="1" source="PxYYPepECbO49ryiqM4Z-753" target="PxYYPepECbO49ryiqM4Z-692">
          <mxGeometry relative="1" as="geometry">
            <mxPoint x="301.645852749301" y="802.2413793103449" as="sourcePoint" />
            <mxPoint x="303.17088875709567" y="800.8620689655172" as="targetPoint" />
          </mxGeometry>
        </mxCell>
        <mxCell id="PxYYPepECbO49ryiqM4Z-714" style="edgeStyle=none;rounded=1;orthogonalLoop=1;jettySize=auto;html=1;fillColor=#e1d5e7;strokeColor=#9673a6;curved=0;endArrow=none;startFill=0;strokeWidth=0.5;" edge="1" parent="1" source="PxYYPepECbO49ryiqM4Z-753" target="PxYYPepECbO49ryiqM4Z-693">
          <mxGeometry relative="1" as="geometry">
            <mxPoint x="305.71261543675337" y="796.551724137931" as="sourcePoint" />
            <mxPoint x="304.69592476489026" y="798.7931034482758" as="targetPoint" />
          </mxGeometry>
        </mxCell>
        <mxCell id="PxYYPepECbO49ryiqM4Z-715" style="edgeStyle=none;rounded=1;orthogonalLoop=1;jettySize=auto;html=1;fillColor=#d5e8d4;strokeColor=#82b366;curved=0;endArrow=none;startFill=0;strokeWidth=0.5;" edge="1" parent="1" source="PxYYPepECbO49ryiqM4Z-744" target="PxYYPepECbO49ryiqM4Z-697">
          <mxGeometry relative="1" as="geometry">
            <mxPoint x="283.00652376514444" y="811.7241379310345" as="sourcePoint" />
            <mxPoint x="282.3287299839024" y="813.1034482758621" as="targetPoint" />
          </mxGeometry>
        </mxCell>
        <mxCell id="PxYYPepECbO49ryiqM4Z-716" style="edgeStyle=none;rounded=1;orthogonalLoop=1;jettySize=auto;html=1;fillColor=#d5e8d4;strokeColor=#82b366;curved=0;endArrow=none;startFill=0;strokeWidth=0.5;" edge="1" parent="1" source="PxYYPepECbO49ryiqM4Z-697" target="PxYYPepECbO49ryiqM4Z-698">
          <mxGeometry relative="1" as="geometry">
            <mxPoint x="284.36211132762855" y="812.0689655172414" as="sourcePoint" />
            <mxPoint x="281.9898330932814" y="815.3448275862069" as="targetPoint" />
          </mxGeometry>
        </mxCell>
        <mxCell id="PxYYPepECbO49ryiqM4Z-717" style="edgeStyle=none;rounded=1;orthogonalLoop=1;jettySize=auto;html=1;fillColor=#d5e8d4;strokeColor=#82b366;curved=0;endArrow=none;startFill=0;strokeWidth=0.5;" edge="1" parent="1" source="PxYYPepECbO49ryiqM4Z-698" target="PxYYPepECbO49ryiqM4Z-699">
          <mxGeometry relative="1" as="geometry">
            <mxPoint x="280.29534864017626" y="817.2413793103449" as="sourcePoint" />
            <mxPoint x="278.9397610776921" y="818.448275862069" as="targetPoint" />
          </mxGeometry>
        </mxCell>
        <mxCell id="PxYYPepECbO49ryiqM4Z-718" style="edgeStyle=none;rounded=1;orthogonalLoop=1;jettySize=auto;html=1;fillColor=#d5e8d4;strokeColor=#82b366;curved=0;endArrow=none;startFill=0;strokeWidth=0.5;" edge="1" parent="1" source="PxYYPepECbO49ryiqM4Z-699" target="PxYYPepECbO49ryiqM4Z-700">
          <mxGeometry relative="1" as="geometry">
            <mxPoint x="277.24527662458695" y="820.3448275862069" as="sourcePoint" />
            <mxPoint x="275.38134372617134" y="821.8965517241379" as="targetPoint" />
          </mxGeometry>
        </mxCell>
        <mxCell id="PxYYPepECbO49ryiqM4Z-719" style="edgeStyle=none;rounded=1;orthogonalLoop=1;jettySize=auto;html=1;fillColor=#d5e8d4;strokeColor=#82b366;curved=0;endArrow=none;startFill=0;strokeWidth=0.5;" edge="1" parent="1" source="PxYYPepECbO49ryiqM4Z-700" target="PxYYPepECbO49ryiqM4Z-701">
          <mxGeometry relative="1" as="geometry">
            <mxPoint x="273.34796238244513" y="823.448275862069" as="sourcePoint" />
            <mxPoint x="272.3312717105821" y="823.9655172413793" as="targetPoint" />
          </mxGeometry>
        </mxCell>
        <mxCell id="PxYYPepECbO49ryiqM4Z-720" style="edgeStyle=none;rounded=1;orthogonalLoop=1;jettySize=auto;html=1;fillColor=#dae8fc;strokeColor=#6c8ebf;curved=0;endArrow=none;startFill=0;strokeWidth=0.5;" edge="1" parent="1" source="PxYYPepECbO49ryiqM4Z-745" target="PxYYPepECbO49ryiqM4Z-747">
          <mxGeometry relative="1" as="geometry">
            <mxPoint x="284.36211132762855" y="812.0689655172414" as="sourcePoint" />
            <mxPoint x="281.9898330932814" y="815.3448275862069" as="targetPoint" />
          </mxGeometry>
        </mxCell>
        <mxCell id="PxYYPepECbO49ryiqM4Z-721" style="edgeStyle=none;rounded=1;orthogonalLoop=1;jettySize=auto;html=1;fillColor=#dae8fc;strokeColor=#6c8ebf;curved=0;endArrow=none;startFill=0;strokeWidth=0.5;" edge="1" parent="1" source="PxYYPepECbO49ryiqM4Z-746" target="PxYYPepECbO49ryiqM4Z-745">
          <mxGeometry relative="1" as="geometry">
            <mxPoint x="268.4339574684402" y="814.3103448275862" as="sourcePoint" />
            <mxPoint x="270.12844192154535" y="813.6206896551724" as="targetPoint" />
          </mxGeometry>
        </mxCell>
        <mxCell id="PxYYPepECbO49ryiqM4Z-722" style="edgeStyle=none;rounded=1;orthogonalLoop=1;jettySize=auto;html=1;fillColor=#dae8fc;strokeColor=#6c8ebf;curved=0;endArrow=none;startFill=0;strokeWidth=0.5;" edge="1" parent="1" source="PxYYPepECbO49ryiqM4Z-748" target="PxYYPepECbO49ryiqM4Z-746">
          <mxGeometry relative="1" as="geometry">
            <mxPoint x="265.2144370075405" y="815.8620689655172" as="sourcePoint" />
            <mxPoint x="266.06167923409305" y="815.5172413793103" as="targetPoint" />
          </mxGeometry>
        </mxCell>
        <mxCell id="PxYYPepECbO49ryiqM4Z-723" style="edgeStyle=none;rounded=1;orthogonalLoop=1;jettySize=auto;html=1;fillColor=#dae8fc;strokeColor=#6c8ebf;curved=0;endArrow=none;startFill=0;strokeWidth=0.5;" edge="1" parent="1" source="PxYYPepECbO49ryiqM4Z-749" target="PxYYPepECbO49ryiqM4Z-748">
          <mxGeometry relative="1" as="geometry">
            <mxPoint x="261.82546810133016" y="817.0689655172414" as="sourcePoint" />
            <mxPoint x="262.84215877319326" y="816.8965517241379" as="targetPoint" />
          </mxGeometry>
        </mxCell>
        <mxCell id="PxYYPepECbO49ryiqM4Z-724" style="edgeStyle=none;rounded=1;orthogonalLoop=1;jettySize=auto;html=1;fillColor=#dae8fc;strokeColor=#6c8ebf;curved=0;endArrow=none;startFill=0;strokeWidth=0.5;" edge="1" parent="1" source="PxYYPepECbO49ryiqM4Z-750" target="PxYYPepECbO49ryiqM4Z-749">
          <mxGeometry relative="1" as="geometry">
            <mxPoint x="258.4364991951199" y="817.9310344827586" as="sourcePoint" />
            <mxPoint x="259.453189866983" y="817.7586206896551" as="targetPoint" />
          </mxGeometry>
        </mxCell>
        <mxCell id="PxYYPepECbO49ryiqM4Z-725" style="edgeStyle=none;rounded=1;orthogonalLoop=1;jettySize=auto;html=1;fillColor=#ffe6cc;strokeColor=light-dark(#929292, #996500);curved=0;endArrow=none;startFill=0;opacity=60;dashed=1;strokeWidth=0.5;" edge="1" parent="1" source="PxYYPepECbO49ryiqM4Z-683" target="PxYYPepECbO49ryiqM4Z-689">
          <mxGeometry relative="1" as="geometry">
            <mxPoint x="295.32486641381274" y="765.689086058813" as="sourcePoint" />
            <mxPoint x="292.91925781580954" y="775.7413793103448" as="targetPoint" />
          </mxGeometry>
        </mxCell>
        <mxCell id="PxYYPepECbO49ryiqM4Z-726" style="edgeStyle=none;rounded=1;orthogonalLoop=1;jettySize=auto;html=1;fillColor=#ffe6cc;strokeColor=light-dark(#929292, #996500);curved=0;endArrow=none;startFill=0;opacity=60;dashed=1;strokeWidth=0.5;" edge="1" parent="1" source="PxYYPepECbO49ryiqM4Z-693" target="PxYYPepECbO49ryiqM4Z-689">
          <mxGeometry relative="1" as="geometry">
            <mxPoint x="294.5290180462594" y="767.3275862068965" as="sourcePoint" />
            <mxPoint x="294.02067271032786" y="784.2241379310345" as="targetPoint" />
          </mxGeometry>
        </mxCell>
        <mxCell id="PxYYPepECbO49ryiqM4Z-727" style="edgeStyle=none;rounded=1;orthogonalLoop=1;jettySize=auto;html=1;fillColor=#ffe6cc;strokeColor=light-dark(#929292, #996500);curved=0;endArrow=none;startFill=0;opacity=60;dashed=1;strokeWidth=0.5;" edge="1" parent="1" source="PxYYPepECbO49ryiqM4Z-744" target="PxYYPepECbO49ryiqM4Z-689">
          <mxGeometry relative="1" as="geometry">
            <mxPoint x="307.91544522579005" y="791.4655172413793" as="sourcePoint" />
            <mxPoint x="295.2068118275015" y="785.948275862069" as="targetPoint" />
          </mxGeometry>
        </mxCell>
        <mxCell id="PxYYPepECbO49ryiqM4Z-728" style="edgeStyle=none;rounded=1;orthogonalLoop=1;jettySize=auto;html=1;fillColor=#ffe6cc;strokeColor=light-dark(#929292, #996500);curved=0;endArrow=none;startFill=0;opacity=60;dashed=1;strokeWidth=0.5;" edge="1" parent="1" source="PxYYPepECbO49ryiqM4Z-747" target="PxYYPepECbO49ryiqM4Z-689">
          <mxGeometry relative="1" as="geometry">
            <mxPoint x="285.5482504448022" y="809.9137931034483" as="sourcePoint" />
            <mxPoint x="293.68177581970684" y="786.6379310344828" as="targetPoint" />
          </mxGeometry>
        </mxCell>
        <mxCell id="PxYYPepECbO49ryiqM4Z-729" style="edgeStyle=none;rounded=1;orthogonalLoop=1;jettySize=auto;html=1;fillColor=#ffe6cc;strokeColor=light-dark(#929292, #996500);curved=0;endArrow=none;startFill=0;opacity=60;dashed=1;strokeWidth=0.5;" edge="1" parent="1" source="PxYYPepECbO49ryiqM4Z-747" target="PxYYPepECbO49ryiqM4Z-744">
          <mxGeometry relative="1" as="geometry">
            <mxPoint x="272.16182326527155" y="811.9827586206897" as="sourcePoint" />
            <mxPoint x="293.1734304837753" y="786.4655172413793" as="targetPoint" />
          </mxGeometry>
        </mxCell>
        <mxCell id="PxYYPepECbO49ryiqM4Z-730" style="edgeStyle=none;rounded=1;orthogonalLoop=1;jettySize=auto;html=1;fillColor=#ffe6cc;strokeColor=light-dark(#929292, #996500);curved=0;endArrow=none;startFill=0;opacity=60;dashed=1;exitX=0;exitY=1;exitDx=0;exitDy=0;strokeWidth=0.5;" edge="1" parent="1" source="PxYYPepECbO49ryiqM4Z-693" target="PxYYPepECbO49ryiqM4Z-744">
          <mxGeometry relative="1" as="geometry">
            <mxPoint x="272.50072015589257" y="812.8448275862069" as="sourcePoint" />
            <mxPoint x="284.02321443700754" y="811.2931034482758" as="targetPoint" />
          </mxGeometry>
        </mxCell>
        <mxCell id="PxYYPepECbO49ryiqM4Z-731" style="edgeStyle=none;rounded=1;orthogonalLoop=1;jettySize=auto;html=1;fillColor=#ffe6cc;strokeColor=light-dark(#929292, #996500);curved=0;endArrow=none;startFill=0;opacity=60;dashed=1;strokeWidth=0.5;" edge="1" parent="1" source="PxYYPepECbO49ryiqM4Z-683" target="PxYYPepECbO49ryiqM4Z-693">
          <mxGeometry relative="1" as="geometry">
            <mxPoint x="308.25434211641107" y="792.8448275862069" as="sourcePoint" />
            <mxPoint x="286.2260442260442" y="810.2586206896552" as="targetPoint" />
          </mxGeometry>
        </mxCell>
        <mxCell id="PxYYPepECbO49ryiqM4Z-732" style="edgeStyle=none;rounded=1;orthogonalLoop=1;jettySize=auto;html=1;fillColor=#ffe6cc;strokeColor=light-dark(#929292, #996500);curved=0;endArrow=none;startFill=0;opacity=60;dashed=1;strokeWidth=0.5;" edge="1" parent="1" source="PxYYPepECbO49ryiqM4Z-683" target="PxYYPepECbO49ryiqM4Z-747">
          <mxGeometry relative="1" as="geometry">
            <mxPoint x="295.2068118275015" y="767.3275862068965" as="sourcePoint" />
            <mxPoint x="308.4237905617216" y="790.7758620689655" as="targetPoint" />
          </mxGeometry>
        </mxCell>
        <mxCell id="PxYYPepECbO49ryiqM4Z-733" style="edgeStyle=none;rounded=1;orthogonalLoop=1;jettySize=auto;html=1;fillColor=#ffe6cc;strokeColor=light-dark(#929292, #996500);curved=0;endArrow=none;startFill=0;opacity=60;dashed=1;strokeWidth=0.5;" edge="1" parent="1" source="PxYYPepECbO49ryiqM4Z-688" target="PxYYPepECbO49ryiqM4Z-740">
          <mxGeometry relative="1" as="geometry">
            <mxPoint x="294.02067271032786" y="767.3275862068965" as="sourcePoint" />
            <mxPoint x="271.82292637465054" y="811.8103448275862" as="targetPoint" />
          </mxGeometry>
        </mxCell>
        <mxCell id="PxYYPepECbO49ryiqM4Z-734" style="edgeStyle=none;rounded=1;orthogonalLoop=1;jettySize=auto;html=1;fillColor=#ffe6cc;strokeColor=light-dark(#929292, #996500);curved=0;endArrow=none;startFill=0;opacity=60;dashed=1;strokeWidth=0.5;" edge="1" parent="1" source="PxYYPepECbO49ryiqM4Z-688" target="PxYYPepECbO49ryiqM4Z-701">
          <mxGeometry relative="1" as="geometry">
            <mxPoint x="275.04244683555027" y="800.2586206896551" as="sourcePoint" />
            <mxPoint x="280.46479708548674" y="803.1896551724138" as="targetPoint" />
          </mxGeometry>
        </mxCell>
        <mxCell id="PxYYPepECbO49ryiqM4Z-735" style="edgeStyle=none;rounded=1;orthogonalLoop=1;jettySize=auto;html=1;fillColor=#ffe6cc;strokeColor=light-dark(#929292, #996500);curved=0;endArrow=none;startFill=0;opacity=60;dashed=1;strokeWidth=0.5;" edge="1" parent="1" source="PxYYPepECbO49ryiqM4Z-740" target="PxYYPepECbO49ryiqM4Z-744">
          <mxGeometry relative="1" as="geometry">
            <mxPoint x="274.8729983902398" y="800.6034482758621" as="sourcePoint" />
            <mxPoint x="284.36211132762855" y="810.2586206896552" as="targetPoint" />
          </mxGeometry>
        </mxCell>
        <mxCell id="PxYYPepECbO49ryiqM4Z-736" style="edgeStyle=none;rounded=1;orthogonalLoop=1;jettySize=auto;html=1;fillColor=#ffe6cc;strokeColor=light-dark(#929292, #996500);curved=0;endArrow=none;startFill=0;opacity=60;dashed=1;entryX=1;entryY=0;entryDx=0;entryDy=0;strokeWidth=0.5;" edge="1" parent="1" source="PxYYPepECbO49ryiqM4Z-740" target="PxYYPepECbO49ryiqM4Z-701">
          <mxGeometry relative="1" as="geometry">
            <mxPoint x="282.15928153859187" y="805.0862068965517" as="sourcePoint" />
            <mxPoint x="284.7010082182496" y="809.9137931034483" as="targetPoint" />
          </mxGeometry>
        </mxCell>
        <mxCell id="PxYYPepECbO49ryiqM4Z-737" style="edgeStyle=none;rounded=1;orthogonalLoop=1;jettySize=auto;html=1;fillColor=#ffe6cc;strokeColor=light-dark(#929292, #996500);curved=0;endArrow=none;startFill=0;opacity=60;dashed=1;exitX=0;exitY=0;exitDx=0;exitDy=0;strokeWidth=0.5;" edge="1" parent="1" source="PxYYPepECbO49ryiqM4Z-701" target="PxYYPepECbO49ryiqM4Z-750">
          <mxGeometry relative="1" as="geometry">
            <mxPoint x="280.9731424214183" y="804.9137931034483" as="sourcePoint" />
            <mxPoint x="267.92561213250866" y="825.2586206896551" as="targetPoint" />
          </mxGeometry>
        </mxCell>
        <mxCell id="PxYYPepECbO49ryiqM4Z-738" style="edgeStyle=none;rounded=1;orthogonalLoop=1;jettySize=auto;html=1;fillColor=#ffe6cc;strokeColor=light-dark(#929292, #996500);curved=0;endArrow=none;startFill=0;opacity=60;dashed=1;strokeWidth=0.5;" edge="1" parent="1" source="PxYYPepECbO49ryiqM4Z-688" target="PxYYPepECbO49ryiqM4Z-750">
          <mxGeometry relative="1" as="geometry">
            <mxPoint x="266.2311276794035" y="825.2586206896551" as="sourcePoint" />
            <mxPoint x="254.8780818435991" y="819.2241379310345" as="targetPoint" />
          </mxGeometry>
        </mxCell>
        <mxCell id="PxYYPepECbO49ryiqM4Z-739" style="edgeStyle=none;rounded=1;orthogonalLoop=1;jettySize=auto;html=1;fillColor=#ffe6cc;strokeColor=light-dark(#929292, #996500);curved=0;endArrow=none;startFill=0;opacity=60;dashed=1;strokeWidth=0.5;" edge="1" parent="1" source="PxYYPepECbO49ryiqM4Z-688" target="PxYYPepECbO49ryiqM4Z-696">
          <mxGeometry relative="1" as="geometry">
            <mxPoint x="273.0090654918241" y="800.6034482758621" as="sourcePoint" />
            <mxPoint x="254.70863339828855" y="817.8448275862069" as="targetPoint" />
          </mxGeometry>
        </mxCell>
        <mxCell id="PxYYPepECbO49ryiqM4Z-740" value="" style="ellipse;whiteSpace=wrap;html=1;aspect=fixed;fillColor=#f8cecc;strokeColor=#b85450;strokeWidth=0.5;" vertex="1" parent="1">
          <mxGeometry x="278.68558840972634" y="800.8620689655172" width="3" height="3" as="geometry" />
        </mxCell>
        <mxCell id="PxYYPepECbO49ryiqM4Z-741" style="edgeStyle=none;rounded=1;orthogonalLoop=1;jettySize=auto;html=1;fillColor=#ffe6cc;strokeColor=light-dark(#929292, #996500);curved=0;endArrow=none;startFill=0;opacity=60;dashed=1;entryX=1;entryY=0;entryDx=0;entryDy=0;exitX=0;exitY=1;exitDx=0;exitDy=0;strokeWidth=0.5;" edge="1" parent="1" source="PxYYPepECbO49ryiqM4Z-740" target="PxYYPepECbO49ryiqM4Z-750">
          <mxGeometry relative="1" as="geometry">
            <mxPoint x="275.04244683555027" y="800.2586206896551" as="sourcePoint" />
            <mxPoint x="292.15673981191225" y="809.5689655172414" as="targetPoint" />
          </mxGeometry>
        </mxCell>
        <mxCell id="PxYYPepECbO49ryiqM4Z-742" style="edgeStyle=none;rounded=1;orthogonalLoop=1;jettySize=auto;html=1;fillColor=#ffe6cc;strokeColor=light-dark(#929292, #996500);curved=0;endArrow=none;startFill=0;opacity=60;dashed=1;entryX=0.647;entryY=0.233;entryDx=0;entryDy=0;entryPerimeter=0;strokeWidth=0.5;" edge="1" parent="1" source="PxYYPepECbO49ryiqM4Z-696" target="PxYYPepECbO49ryiqM4Z-750">
          <mxGeometry relative="1" as="geometry">
            <mxPoint x="280.80369397610775" y="804.7413793103449" as="sourcePoint" />
            <mxPoint x="254.53918495297808" y="817.8448275862069" as="targetPoint" />
          </mxGeometry>
        </mxCell>
        <mxCell id="PxYYPepECbO49ryiqM4Z-743" style="edgeStyle=none;rounded=1;orthogonalLoop=1;jettySize=auto;html=1;fillColor=#ffe6cc;strokeColor=light-dark(#929292, #996500);curved=0;endArrow=none;startFill=0;opacity=60;dashed=1;strokeWidth=0.5;" edge="1" parent="1" source="PxYYPepECbO49ryiqM4Z-683">
          <mxGeometry relative="1" as="geometry">
            <mxPoint x="295.2068118275015" y="767.3275862068965" as="sourcePoint" />
            <mxPoint x="283.514869101076" y="809.9137931034483" as="targetPoint" />
          </mxGeometry>
        </mxCell>
        <mxCell id="PxYYPepECbO49ryiqM4Z-744" value="" style="ellipse;whiteSpace=wrap;html=1;aspect=fixed;fillColor=#d5e8d4;strokeColor=#82b366;strokeWidth=0.5;" vertex="1" parent="1">
          <mxGeometry x="282.24400576124714" y="806.1034482758621" width="3" height="3" as="geometry" />
        </mxCell>
        <mxCell id="PxYYPepECbO49ryiqM4Z-745" value="" style="ellipse;whiteSpace=wrap;html=1;aspect=fixed;fillColor=#dae8fc;strokeColor=#6c8ebf;strokeWidth=0.5;" vertex="1" parent="1">
          <mxGeometry x="265.28247055833265" y="811.8965517241379" width="3" height="3" as="geometry" />
        </mxCell>
        <mxCell id="PxYYPepECbO49ryiqM4Z-746" value="" style="ellipse;whiteSpace=wrap;html=1;aspect=fixed;fillColor=#dae8fc;strokeColor=#6c8ebf;strokeWidth=0.5;" vertex="1" parent="1">
          <mxGeometry x="262.06295009743286" y="813.448275862069" width="3" height="3" as="geometry" />
        </mxCell>
        <mxCell id="PxYYPepECbO49ryiqM4Z-747" value="" style="ellipse;whiteSpace=wrap;html=1;aspect=fixed;fillColor=#dae8fc;strokeColor=#6c8ebf;strokeWidth=0.5;" vertex="1" parent="1">
          <mxGeometry x="269.34923324578494" y="809" width="3" height="3" as="geometry" />
        </mxCell>
        <mxCell id="PxYYPepECbO49ryiqM4Z-748" value="" style="ellipse;whiteSpace=wrap;html=1;aspect=fixed;fillColor=#dae8fc;strokeColor=#6c8ebf;strokeWidth=0.5;" vertex="1" parent="1">
          <mxGeometry x="258.67398119122254" y="814.4827586206897" width="3" height="3" as="geometry" />
        </mxCell>
        <mxCell id="PxYYPepECbO49ryiqM4Z-749" value="" style="ellipse;whiteSpace=wrap;html=1;aspect=fixed;fillColor=#dae8fc;strokeColor=#6c8ebf;strokeWidth=0.5;" vertex="1" parent="1">
          <mxGeometry x="254.28501228501227" y="816.1724137931035" width="3" height="3" as="geometry" />
        </mxCell>
        <mxCell id="PxYYPepECbO49ryiqM4Z-750" value="" style="ellipse;whiteSpace=wrap;html=1;aspect=fixed;fillColor=#dae8fc;strokeColor=#6c8ebf;strokeWidth=0.5;" vertex="1" parent="1">
          <mxGeometry x="249.72659493349147" y="815.6896551724138" width="3" height="3" as="geometry" />
        </mxCell>
        <mxCell id="PxYYPepECbO49ryiqM4Z-751" value="" style="ellipse;whiteSpace=wrap;html=1;aspect=fixed;fillColor=#f8cecc;strokeColor=#b85450;strokeWidth=0.5;" vertex="1" parent="1">
          <mxGeometry x="288.34414979242564" y="787.4137931034483" width="3" height="3" as="geometry" />
        </mxCell>
        <mxCell id="PxYYPepECbO49ryiqM4Z-752" value="" style="ellipse;whiteSpace=wrap;html=1;aspect=fixed;fillColor=#f8cecc;strokeColor=#b85450;strokeWidth=0.5;" vertex="1" parent="1">
          <mxGeometry x="285.6329746674574" y="792.0689655172414" width="3" height="3" as="geometry" />
        </mxCell>
        <mxCell id="PxYYPepECbO49ryiqM4Z-753" value="" style="ellipse;whiteSpace=wrap;html=1;aspect=fixed;fillColor=#e1d5e7;strokeColor=#9673a6;strokeWidth=0.5;" vertex="1" parent="1">
          <mxGeometry x="303.4250614250614" y="792.4137931034483" width="3" height="3" as="geometry" />
        </mxCell>
      </root>
    </mxGraphModel>
  </diagram>
</mxfile>
